<?xml version="1.0" encoding="UTF-8"?>
<svg version="1.1" xmlns="http://www.w3.org/2000/svg">
 <symbol id="add" viewBox="0 0 20 20">
  <path d="m9.9 1 0.12-0.01c0.51 0 0.94 0.39 0.99 0.88l0.01 0.12v7h7c0.51 0 0.94 0.39 0.99 0.88l0.01 0.12c0 0.51-0.39 0.94-0.88 0.99l-0.12 0.01h-7v7c0 0.51-0.39 0.94-0.88 0.99l-0.12 0.01c-0.51 0-0.94-0.39-0.99-0.88l-0.01-0.12v-7h-7c-0.51 0-0.94-0.39-0.99-0.88l-0.01-0.12c0-0.51 0.39-0.94 0.88-0.99l0.12-0.01h7v-7c0-0.51 0.39-0.94 0.88-0.99l0.12-0.01-0.12 0.01z"/>
 </symbol>
 <symbol id="alert" viewBox="0 0 20 20">
  <path d="m7 17h5.9c-0.24 1.4-1.5 2.5-3 2.5-1.5 0-2.7-1.1-3-2.5zm3-17c4.1 0 7.5 3.4 7.5 7.5v4l1.4 3.2c0.06 0.12 0.09 0.25 0.09 0.39 0 0.52-0.43 0.95-0.95 0.95h-16c-0.14 0-0.27-0.03-0.39-0.09-0.48-0.21-0.69-0.77-0.48-1.2l1.4-3.2v-4-0.25c0.14-4 3.4-7.2 7.5-7.2z"/>
 </symbol>
 <symbol id="bookmark" viewBox="0 0 20 20">
  <path d="m4.2 20c-0.5 0.36-1.2 0.01-1.2-0.6v-15c0-1.8 1.5-3.2 3.2-3.2h7.5c1.8 0 3.2 1.5 3.2 3.2v15c0 0.61-0.69 0.96-1.2 0.6l-5.8-4.2-5.8 4.2z"/>
 </symbol>
 <symbol id="bug" viewBox="0 0 20 20">
  <path d="m12 0c0.38 0 0.69 0.28 0.74 0.65l0.01 0.1v0.75c0 0.64-0.2 1.2-0.53 1.7 1.4 0.48 2.4 1.8 2.5 3.3h0.26c1.2-0.01 2.2-1 2.2-2.3l-0.01-1.5c0-0.41 0.33-0.75 0.75-0.75 0.41 0 0.75 0.33 0.75 0.75l0.01 1.5c0 2-1.6 3.6-3.5 3.8l-0.21 0.01h-0.24v1.5h4.2c0.38 0 0.69 0.28 0.74 0.65l0.01 0.1c0 0.38-0.28 0.69-0.65 0.74l-0.1 0.01h-4.2v2h0.24l0.21 0.01c1.9 0.1 3.4 1.6 3.5 3.6l0.01 0.2-0.01 1.5c0 0.42-0.34 0.75-0.75 0.75-0.38 0-0.7-0.29-0.74-0.65l-0.01-0.1 0.01-1.5c0-1.2-0.92-2.2-2.1-2.2l-0.15-0.01h-0.48c-0.64 2-2.5 3.5-4.8 3.5s-4.1-1.5-4.8-3.5h-0.49c-1.2 0.01-2.2 1-2.2 2.3v1.5c0.01 0.41-0.33 0.75-0.74 0.75-0.42 0-0.75-0.33-0.76-0.75v-1.5c-0.01-2 1.6-3.6 3.5-3.8l0.22-0.01h0.25v-2h-4.2c-0.38 0-0.69-0.28-0.74-0.65l-0.01-0.1c0-0.38 0.28-0.69 0.65-0.74l0.1-0.01h4.2v-1.5h-0.25l-0.22-0.01c-1.9-0.11-3.4-1.6-3.5-3.6v-0.2-1.5c0.01-0.42 0.34-0.75 0.76-0.75 0.38 0 0.69 0.29 0.74 0.65v0.1 1.5c-0.01 1.2 0.91 2.2 2.1 2.2l0.15 0.01h0.27c0.1-1.5 1.1-2.8 2.5-3.3-0.3-0.43-0.49-0.94-0.52-1.5l-0.01-0.21v-0.75c0-0.41 0.33-0.75 0.75-0.75 0.38 0 0.69 0.28 0.74 0.65l0.01 0.1v0.75c0 0.83 0.67 1.5 1.5 1.5 0.78 0 1.4-0.59 1.5-1.4l0.01-0.15v-0.75c0-0.41 0.33-0.75 0.75-0.75z"/>
 </symbol>
 <symbol id="calendar" viewBox="0 0 20 20">
  <path d="m19 6.5v9.2c0 1.8-1.5 3.2-3.2 3.2h-12c-1.8 0-3.2-1.5-3.2-3.2v-9.2h18zm-14 6.5c-0.69 0-1.2 0.56-1.2 1.2s0.56 1.2 1.2 1.2 1.2-0.56 1.2-1.2-0.56-1.2-1.2-1.2zm4.8 0c-0.69 0-1.2 0.56-1.2 1.2s0.56 1.2 1.2 1.2 1.2-0.56 1.2-1.2-0.56-1.2-1.2-1.2zm-4.8-4.5c-0.69 0-1.2 0.56-1.2 1.2s0.56 1.2 1.2 1.2 1.2-0.56 1.2-1.2-0.56-1.2-1.2-1.2zm4.8 0c-0.69 0-1.2 0.56-1.2 1.2s0.56 1.2 1.2 1.2 1.2-0.56 1.2-1.2-0.56-1.2-1.2-1.2zm4.8 0c-0.69 0-1.2 0.56-1.2 1.2s0.56 1.2 1.2 1.2 1.2-0.56 1.2-1.2-0.56-1.2-1.2-1.2zm1-7.5c1.8 0 3.2 1.5 3.2 3.2v0.75h-18v-0.75c0-1.8 1.5-3.2 3.2-3.2h12z"/>
 </symbol>
 <symbol id="chevron-left" viewBox="0 0 20 20">
  <path d="m14 2.3c0.39 0.39 0.39 1 0 1.4l-6.3 6.3 6.3 6.3c0.39 0.39 0.39 1 0 1.4s-1 0.39-1.4 0l-7-7c-0.39-0.39-0.39-1 0-1.4l7-7c0.39-0.39 1-0.39 1.4 0z"/>
 </symbol>
 <symbol id="chevron-right" viewBox="0 0 20 20">
  <path d="m5.8 2.3c-0.39 0.39-0.39 1 0 1.4l6.3 6.3-6.3 6.3c-0.39 0.39-0.39 1 0 1.4s1 0.39 1.4 0l7-7c0.39-0.39 0.39-1 0-1.4l-7-7c-0.39-0.39-1-0.39-1.4 0z"/>
 </symbol>
 <symbol id="clock" viewBox="0 0 20 20">
  <path d="m13 12h-4c-0.41 0-0.75-0.34-0.75-0.75v-6c0-0.41 0.34-0.75 0.75-0.75s0.75 0.34 0.75 0.75v5.2h3.2c0.41 0 0.75 0.34 0.75 0.75s-0.34 0.75-0.75 0.75zm-3.2-12c-5.5 0-10 4.5-10 10s4.5 10 10 10 10-4.5 10-10-4.5-10-10-10z"/>
 </symbol>
 <symbol id="code" viewBox="0 0 20 20">
  <path d="m6.1 17 6-14c0.22-0.5 0.81-0.74 1.3-0.52 0.48 0.2 0.71 0.72 0.57 1.2l-0.04 0.11-6 14c-0.21 0.5-0.8 0.74-1.3 0.52-0.47-0.2-0.71-0.72-0.56-1.2l0.04-0.11 6-14-6 14zm-5.8-7.3 4-4c0.39-0.39 1-0.39 1.4 0 0.36 0.36 0.39 0.93 0.08 1.3l-0.08 0.09-3.3 3.3 3.3 3.3c0.39 0.39 0.39 1 0 1.4-0.36 0.37-0.93 0.39-1.3 0.09l-0.1-0.09-4-4c-0.36-0.36-0.39-0.92-0.08-1.3l0.08-0.09 4-4-4 4zm14-4c0.36-0.36 0.93-0.39 1.3-0.08l0.1 0.08 4 4c0.36 0.36 0.39 0.93 0.08 1.3l-0.08 0.1-4 4c-0.39 0.39-1 0.39-1.4 0-0.36-0.36-0.39-0.93-0.08-1.3l0.08-0.09 3.3-3.3-3.3-3.3c-0.39-0.39-0.39-1 0-1.4z"/>
 </symbol>
 <symbol id="color-palette" viewBox="0 0 20 20">
  <path d="m1.8 3.8c2.9-3.9 9-5.1 13-2.4 4.3 2.7 5.9 7.8 4.1 13-1.6 4.5-6 6.3-9.2 4-1.2-0.85-1.6-1.9-1.8-3.7l-0.11-0.99-0.04-0.4c-0.12-0.93-0.31-1.4-0.7-1.6-0.54-0.3-0.9-0.3-1.6-0.03l-0.35 0.15-0.18 0.07c-1 0.44-1.7 0.6-2.5 0.42l-0.37-0.09c-2.8-0.87-3.2-4.6-0.56-8.2zm13 4.7c0.18 0.67 0.86 1.1 1.5 0.88 0.67-0.17 1.1-0.86 0.88-1.5-0.18-0.66-0.86-1.1-1.5-0.88s-1.1 0.86-0.88 1.5zm0.49 3.5c0.18 0.67 0.87 1.1 1.5 0.88 0.67-0.18 1.1-0.86 0.89-1.5-0.18-0.66-0.87-1.1-1.5-0.88-0.67 0.18-1.1 0.86-0.89 1.5zm-2.5-6.5c0.18 0.66 0.86 1.1 1.5 0.88s1.1-0.86 0.88-1.5c-0.17-0.67-0.86-1.1-1.5-0.88-0.66 0.18-1.1 0.86-0.88 1.5zm-0.03 9c0.18 0.66 0.86 1.1 1.5 0.88s1.1-0.86 0.89-1.5c-0.18-0.67-0.87-1.1-1.5-0.88-0.66 0.17-1.1 0.86-0.88 1.5zm-3.5-10c0.18 0.66 0.87 1.1 1.5 0.88 0.67-0.18 1.1-0.86 0.89-1.5s-0.87-1.1-1.5-0.88c-0.67 0.17-1.1 0.86-0.89 1.5z"/>
 </symbol>
 <symbol id="comment" viewBox="0 0 20 20">
  <path d="m16 14c-0.13 1.7-1.5 3-3.2 3h-4.1l-3.7 2.8c-0.82 0.62-2 0.03-2-1v-1.8c-1.7-0.13-3-1.5-3-3.2v-6.5c0-1.7 1.3-3.1 3-3.2 0.08-0.01 0.17-0.01 0.25-0.01h9.5c1.8 0 3.2 1.4 3.2 3.2v6.5c0 0.08 0 0.17-0.01 0.25zm-0.74-14c2.6 0 4.8 2.1 4.8 4.8v6c0 1.7-1.3 3.1-3 3.2 0.01-0.08 0.01-0.16 0.01-0.24v-6.5c0-2.4-1.9-4.2-4.2-4.2h-9.5c-0.08 0-0.16 0-0.24 0.01 0.12-1.7 1.5-3 3.2-3z"/>
 </symbol>
 <symbol id="copy" viewBox="0 0 20 20">
  <path d="m3.5 2.6v2.1 10c0 1.8 1.5 3.2 3.2 3.2h8.6c-0.31 0.88-1.2 1.5-2.1 1.5h-6.5c-2.6 0-4.8-2.1-4.8-4.8v-10c0-0.98 0.63-1.8 1.5-2.1zm12-2.6c1.2 0 2.2 1 2.2 2.2v13c0 1.2-1 2.2-2.2 2.2h-9c-1.2 0-2.2-1-2.2-2.2v-13c0-1.2 1-2.2 2.2-2.2h9z"/>
 </symbol>
 <symbol id="credit-card" viewBox="0 0 20 20">
  <path d="m0 5.8c0-1.5 1.2-2.8 2.8-2.8h14c1.5 0 2.8 1.2 2.8 2.8v1.8h-20zm0 3.2h20v5.2c0 1.5-1.2 2.8-2.8 2.8h-14c-1.5 0-2.8-1.2-2.8-2.8zm14 3.5c-0.41 0-0.75 0.34-0.75 0.75s0.34 0.75 0.75 0.75h2.5c0.41 0 0.75-0.34 0.75-0.75s-0.34-0.75-0.75-0.75z"/>
 </symbol>
 <symbol id="crop" viewBox="0 0 20 20">
  <path d="m5 14c0 0.78 0.59 1.4 1.4 1.5l0.14 0.01h12c0.55 0 1 0.45 1 1 0 0.51-0.39 0.94-0.88 0.99l-0.12 0.01h-2v2c0 0.55-0.45 1-1 1-0.51 0-0.94-0.39-0.99-0.88l-0.01-0.12v-2h-8.5c-1.9 0-3.4-1.5-3.5-3.3l-0.01-0.19v-8.5h-2c-0.55 0-1-0.45-1-1 0-0.51 0.39-0.94 0.88-0.99l0.12-0.01h2v-2c0-0.55 0.45-1 1-1 0.51 0 0.94 0.39 0.99 0.88l0.01 0.12v12zm1-10h7.5c1.9 0 3.4 1.5 3.5 3.3l0.01 0.19v7.5h-2v-7.5c0-0.78-0.59-1.4-1.4-1.5l-0.14-0.01h-7.5v-2z"/>
 </symbol>
 <symbol id="cut" viewBox="0 0 20 20">
  <path d="m10 6.8 3.6 5.4c0.4-0.13 0.82-0.2 1.2-0.2 2.2 0 4 1.8 4 4s-1.8 4-4 4-4-1.8-4-4c0-1 0.41-2 1.1-2.7l-1.9-2.8-2 3.1c0.5 0.67 0.79 1.5 0.79 2.4 0 2.2-1.8 4-4 4s-4-1.8-4-4 1.8-4 4-4c0.59 0 1.1 0.13 1.6 0.35l2.3-3.7-4.8-7.1c-0.31-0.46-0.18-1.1 0.27-1.4 0.46-0.31 1.1-0.18 1.4 0.27zm-5.1 11c1.1 0 2-0.89 2-2 0-1.1-0.89-2-2-2-1.1 0-2 0.9-2 2 0 1.1 0.9 2 2 2zm10 0c1.1 0 2-0.89 2-2 0-1.1-0.89-2-2-2-1.1 0-2 0.9-2 2 0 1.1 0.9 2 2 2zm-3.7-13 2.9-4.5c0.29-0.47 0.91-0.61 1.4-0.31 0.46 0.29 0.6 0.91 0.31 1.4l-3.3 5.2z"/>
 </symbol>
 <symbol id="delete" viewBox="0 0 20 20">
  <path d="m20 4c0 0.51-0.39 0.94-0.88 0.99l-0.12 0.01h-0.84l-1.2 13c-0.13 1.4-1.3 2.5-2.7 2.5h-7.4c-1.4 0-2.6-1.1-2.7-2.5l-1.2-13h-0.84c-0.55 0-1-0.45-1-1s0.45-1 1-1h5c0-1.9 1.6-3.5 3.5-3.5s3.5 1.6 3.5 3.5h5c0.55 0 1 0.45 1 1zm-7.2 3.2c-0.38 0-0.69 0.28-0.74 0.65l-0.01 0.1v7l0.01 0.1c0.05 0.37 0.36 0.65 0.74 0.65s0.69-0.28 0.74-0.65l0.01-0.1v-7l-0.01-0.1c-0.05-0.37-0.36-0.65-0.74-0.65zm-4.5 0c-0.38 0-0.69 0.28-0.74 0.65l-0.01 0.1v7l0.01 0.1c0.05 0.37 0.36 0.65 0.74 0.65s0.69-0.28 0.74-0.65l0.01-0.1v-7l-0.01-0.1c-0.05-0.37-0.36-0.65-0.74-0.65zm2.2-5.8c-0.83 0-1.5 0.67-1.5 1.5h3c0-0.83-0.67-1.5-1.5-1.5z"/>
 </symbol>
 <symbol id="earth" viewBox="0 0 20 20">
  <path d="m9 0.05c0.35-0.03 0.7-0.05 1-0.05 5.5 0 10 4.5 10 10s-4.5 10-10 10c-3.2 0-6.1-1.5-7.9-3.9-1.3-1.7-2.1-3.8-2.1-6.1 0-5.2 3.9-9.4 8.9-9.9l0.02-0.01zm1 1.4h-0.16c0.12 0.25 0.25 0.53 0.37 0.85 0.35 0.92 0.67 2.3 0.1 3.5-0.52 1.1-1.4 1.4-2.1 1.6l-0.08 0.02c-0.66 0.17-0.91 0.24-1.1 0.52-0.17 0.25-0.15 0.58 0.06 1.2 0.01 0.04 0.03 0.09 0.04 0.14 0.09 0.26 0.18 0.57 0.23 0.87 0.07 0.36 0.09 0.82-0.15 1.3-0.23 0.45-0.54 0.75-0.9 0.95-0.34 0.18-0.69 0.25-0.96 0.3l-0.09 0.02c-0.51 0.09-0.76 0.13-1 0.39-0.19 0.2-0.31 0.55-0.38 1.1-0.03 0.22-0.04 0.43-0.06 0.65l-0.01 0.12c-0.02 0.24-0.04 0.52-0.1 0.76 1.6 1.7 3.8 2.8 6.3 2.8 1.6 0 3-0.43 4.3-1.2-0.1-0.1-0.21-0.22-0.31-0.35-0.34-0.43-0.79-1.2-0.63-2 0.07-0.42 0.3-0.77 0.51-1 0.22-0.27 0.49-0.52 0.72-0.74 0.06-0.05 0.11-0.1 0.16-0.14 0.18-0.17 0.33-0.3 0.46-0.44 0.17-0.18 0.21-0.26 0.21-0.27 0.07-0.22-0.01-0.38-0.1-0.45-0.05-0.04-0.11-0.06-0.19-0.06-0.09 0-0.22 0.02-0.4 0.14-0.21 0.13-0.52 0.21-0.84 0.08-0.27-0.1-0.41-0.31-0.49-0.43-0.14-0.24-0.22-0.54-0.27-0.77-0.04-0.18-0.08-0.37-0.12-0.55-0.01-0.08-0.03-0.15-0.04-0.21-0.05-0.25-0.09-0.43-0.13-0.54 0 0-0.01-0.01-0.02-0.04-0.02-0.02-0.04-0.06-0.07-0.1-0.05-0.09-0.13-0.19-0.22-0.32-0.04-0.04-0.07-0.09-0.11-0.14-0.16-0.21-0.36-0.47-0.52-0.71-0.19-0.3-0.42-0.69-0.49-1.1-0.03-0.22-0.03-0.47 0.06-0.73 0.09-0.27 0.26-0.48 0.49-0.65 0.48-0.36 1.2-1.2 1.8-2 0.29-0.36 0.54-0.7 0.73-0.95-1.3-0.83-2.9-1.3-4.5-1.3z"/>
 </symbol>
 <symbol id="edit" viewBox="0 0 20 20">
  <path d="m12 3 5.1 5.1-9.9 9.9c-0.27 0.27-0.62 0.47-1 0.58l-5.1 1.4c-0.56 0.16-1.1-0.36-0.92-0.92l1.4-5.1c0.11-0.38 0.31-0.73 0.58-1l9.9-9.9zm7.1-2c1.4 1.4 1.4 3.7 0 5.1l-0.97 0.97-5.1-5.1 0.97-0.97c1.4-1.4 3.7-1.4 5.1 0z"/>
 </symbol>
 <symbol id="flag" viewBox="0 0 20 20">
  <path d="m1 1.8c0-0.41 0.34-0.75 0.75-0.75h16c0.62 0 0.98 0.71 0.6 1.2l-4.2 5.6 4.2 5.6c0.38 0.5 0.02 1.2-0.6 1.2h-16v4.8c0 0.38-0.28 0.7-0.65 0.75h-0.1c-0.38 0-0.69-0.28-0.74-0.65l-0.01-0.1v-18z"/>
 </symbol>
 <symbol id="folder" viewBox="0 0 20 20">
  <path d="m12 4.5h5.9c1.1 0 2.1 0.84 2.2 1.9l0.01 0.16 0.01 0.15v9c0 1.2-0.93 2.2-2.1 2.2l-0.15 0.01h-16c-1.2 0-2.2-0.93-2.2-2.1l-0.01-0.15v-7.2h6.2l0.19-0.01c0.39-0.03 0.77-0.17 1.1-0.39l0.16-0.12 4.2-3.5zm-5.6-2.5c0.46 0 0.91 0.14 1.3 0.4l0.16 0.12 2.1 1.8-3.1 2.6-0.09 0.06c-0.09 0.05-0.19 0.09-0.29 0.1l-0.1 0.01h-6.2v-2.8c0-1.2 0.93-2.2 2.1-2.2l0.15-0.01h4z"/>
 </symbol>
 <symbol id="help" viewBox="0 0 20 20">
  <path d="m10 0c5.5 0 10 4.5 10 10s-4.5 10-10 10-10-4.5-10-10 4.5-10 10-10zm0 14c-0.55 0-1 0.45-1 1s0.45 1 1 1 1-0.45 1-1-0.45-1-1-1zm0-8.8c-1.5 0-2.8 1.2-2.8 2.8 0 0.41 0.34 0.75 0.75 0.75 0.38 0 0.69-0.28 0.74-0.65l0.01-0.1c0-0.69 0.56-1.2 1.2-1.2s1.2 0.56 1.2 1.2c0 0.54-0.13 0.81-0.64 1.3l-0.14 0.14c-0.88 0.88-1.2 1.4-1.2 2.5 0 0.41 0.34 0.75 0.75 0.75s0.75-0.34 0.75-0.75c0-0.54 0.14-0.81 0.64-1.3l0.14-0.14c0.88-0.88 1.2-1.4 1.2-2.5 0-1.5-1.2-2.8-2.8-2.8z"/>
 </symbol>
 <symbol id="history-redo" viewBox="0 0 20 20">
  <path d="m16 5.6-3.6-3.6c-2.6-2.6-6.8-2.6-9.4 0s-2.6 6.8 0 9.4l8.3 8.3c0.39 0.39 1 0.39 1.4 0s0.39-1 0-1.4l-8.3-8.3c-1.8-1.8-1.8-4.8 0-6.6 1.8-1.8 4.6-1.8 6.4-0.17l0.18 0.17 3.6 3.6h-4.6c-0.51 0-0.94 0.39-0.99 0.88l-0.01 0.12c0 0.51 0.39 0.93 0.88 0.99l0.12 0.01h7c0.51 0 0.94-0.39 0.99-0.88l0.01-0.12v-7c0-0.55-0.45-1-1-1-0.51 0-0.94 0.39-0.99 0.89l-0.01 0.11v4.6l-3.6-3.6 3.6 3.6z"/>
 </symbol>
 <symbol id="history-undo" viewBox="0 0 20 20">
  <path d="m4 5.6 3.6-3.6c2.6-2.6 6.8-2.6 9.4 0s2.6 6.8 0 9.4l-8.3 8.3c-0.39 0.39-1 0.39-1.4 0s-0.39-1 0-1.4l8.3-8.3c1.8-1.8 1.8-4.8 0-6.6-1.8-1.8-4.6-1.8-6.4-0.17l-0.18 0.17-3.6 3.6h4.6c0.51 0 0.94 0.39 0.99 0.88l0.01 0.12c0 0.51-0.39 0.93-0.88 0.99l-0.12 0.01h-7c-0.51 0-0.94-0.39-0.99-0.88l-0.01-0.12v-7c0-0.55 0.45-1 1-1 0.51 0 0.94 0.39 0.99 0.89l0.01 0.11v4.6l3.6-3.6-3.6 3.6z"/>
 </symbol>
 <symbol id="home" viewBox="0 0 20 20">
  <path d="m8.6 0.53c0.83-0.71 2.1-0.71 2.9 0l6.8 5.7c0.5 0.43 0.8 1.1 0.8 1.7v9.8c0 0.96-0.79 1.8-1.8 1.8h-3c-0.97 0-1.8-0.79-1.8-1.8v-5c0-0.42-0.34-0.75-0.75-0.75h-3.5c-0.42 0-0.75 0.33-0.75 0.75v5c0 0.96-0.79 1.8-1.8 1.8h-3c-0.97 0-1.8-0.79-1.8-1.8v-9.8c0-0.66 0.29-1.3 0.8-1.7l6.8-5.7z"/>
 </symbol>
 <symbol id="image" viewBox="0 0 20 20">
  <path d="m9.5 12 0.09-0.07c0.26-0.19 0.61-0.19 0.87-0.01l0.1 0.08 6.9 6.8c-0.49 0.3-1.1 0.48-1.7 0.48h-12c-0.62 0-1.2-0.18-1.7-0.48l6.9-6.8 0.09-0.07-0.09 0.07zm6.3-11c1.8 0 3.2 1.5 3.2 3.2v12c0 0.63-0.18 1.2-0.49 1.7l-6.9-6.8-0.13-0.12c-0.83-0.7-2.1-0.7-2.9-0.01l-0.14 0.13-6.9 6.8c-0.31-0.5-0.49-1.1-0.49-1.7v-12c0-1.8 1.5-3.2 3.2-3.2h12zm-2 3c-1.2 0-2.2 1-2.2 2.2 0 1.2 1 2.2 2.2 2.2 1.2 0 2.2-1 2.2-2.2 0-1.2-1-2.2-2.2-2.2zm0 1.5c0.42 0 0.75 0.34 0.75 0.75 0 0.42-0.33 0.75-0.75 0.75-0.41 0-0.75-0.33-0.75-0.75 0-0.41 0.34-0.75 0.75-0.75z"/>
 </symbol>
 <symbol id="info" viewBox="0 0 20 20">
  <path d="m10 0c5.5 0 10 4.5 10 10s-4.5 10-10 10-10-4.5-10-10 4.5-10 10-10zm0 8.2c-0.52 0-0.94 0.39-1 0.88v0.12 5.5l0.01 0.12c0.06 0.5 0.48 0.88 0.99 0.88s0.94-0.39 0.99-0.88l0.01-0.12v-5.5l-0.01-0.12c-0.06-0.5-0.48-0.88-0.99-0.88zm0-3.8c-0.69 0-1.2 0.56-1.2 1.2s0.56 1.2 1.2 1.2 1.2-0.56 1.2-1.2-0.56-1.2-1.2-1.2z"/>
 </symbol>
 <symbol id="link" viewBox="0 0 20 20">
  <path d="m7 5c0.55 0 1 0.45 1 1 0 0.51-0.39 0.94-0.88 0.99l-0.12 0.01h-2c-1.7 0-3 1.3-3 3 0 1.6 1.2 2.9 2.8 3l0.18 0.01h2c0.55 0 1 0.45 1 1 0 0.51-0.39 0.94-0.88 0.99l-0.12 0.01h-2c-2.8 0-5-2.2-5-5 0-2.7 2.1-4.9 4.8-5h0.22 2zm8 0c2.8 0 5 2.2 5 5 0 2.7-2.1 4.9-4.8 5h-0.22-2c-0.55 0-1-0.45-1-1 0-0.51 0.39-0.94 0.88-0.99l0.12-0.01h2c1.7 0 3-1.3 3-3 0-1.6-1.2-2.9-2.8-3l-0.18-0.01h-2c-0.55 0-1-0.45-1-1 0-0.51 0.39-0.94 0.88-0.99l0.12-0.01h2zm-10 4h10c0.55 0 1 0.45 1 1 0 0.51-0.39 0.94-0.88 0.99l-0.12 0.01h-10c-0.55 0-1-0.45-1-1 0-0.51 0.39-0.94 0.88-0.99l0.12-0.01h10-10z"/>
 </symbol>
 <symbol id="lock" viewBox="0 0 20 20">
  <path d="m10 0c2.2 0 4 1.8 4 4v2h2.5c0.83 0 1.5 0.67 1.5 1.5v11c0 0.83-0.67 1.5-1.5 1.5h-13c-0.83 0-1.5-0.67-1.5-1.5v-11c0-0.83 0.67-1.5 1.5-1.5h2.5v-2c0-2.2 1.8-4 4-4zm0 12c-0.83 0-1.5 0.67-1.5 1.5s0.67 1.5 1.5 1.5 1.5-0.67 1.5-1.5-0.67-1.5-1.5-1.5zm0-9.5c-1.1 0-2 0.9-2 2v2h4v-2c0-1.1-0.9-2-2-2z"/>
 </symbol>
 <symbol id="logout" viewBox="0 0 20 20">
  <path d="m11 20c-0.8 0.16-1.7 0.24-2.6 0.24-3.4 0-6-1.1-7.5-3.2-0.33-0.47-0.51-1-0.51-1.6v-0.92c0-1.2 1-2.2 2.2-2.2h7.8c-0.65 1-1 2.2-1 3.5 0 1.6 0.6 3.1 1.6 4.3zm-2.6-20c2.8 0 5 2.2 5 5s-2.2 5-5 5-5-2.2-5-5 2.2-5 5-5zm13 15c0 3-2.5 5.5-5.5 5.5-3 0-5.5-2.5-5.5-5.5 0-3 2.5-5.5 5.5-5.5 3 0 5.5 2.5 5.5 5.5zm-4.6-2.8c-0.2-0.19-0.51-0.19-0.71 0-0.19 0.2-0.19 0.51 0 0.71l1.6 1.6h-4.3c-0.28 0-0.5 0.23-0.5 0.5 0 0.28 0.22 0.5 0.5 0.5h4.3l-1.6 1.6c-0.19 0.2-0.19 0.51 0 0.71 0.2 0.19 0.51 0.19 0.71 0l2.5-2.5c0.05-0.06 0.09-0.12 0.12-0.18 0.01-0.05 0.03-0.11 0.03-0.17v-0.01c0-0.07-0.02-0.15-0.05-0.21l-0.06-0.09c-0.01-0.02-0.03-0.04-0.04-0.05z"/>
 </symbol>
 <symbol id="mail" viewBox="0 0 20 20">
  <path d="m20 6.6v8.1c0 1.7-1.4 3.2-3.1 3.2l-0.18 0.01h-14c-1.7 0-3.2-1.4-3.2-3.1l-0.01-0.18v-8.1l9.6 5c0.22 0.12 0.48 0.12 0.7 0l9.6-5zm-17-4.6h14c1.7 0 3.1 1.3 3.2 2.9l-10 5.2-10-5.2c0.15-1.6 1.4-2.8 3-2.9l0.19-0.01h14-14z"/>
 </symbol>
 <symbol id="menu" viewBox="0 0 20 20">
  <path d="m1 15h18c0.55 0 1 0.45 1 1 0 0.51-0.39 0.94-0.88 0.99l-0.12 0.01h-18c-0.55 0-1-0.45-1-1 0-0.51 0.39-0.94 0.88-0.99l0.12-0.01h18-18zm0-6h18c0.55 0 1 0.45 1 1 0 0.51-0.39 0.93-0.88 0.99l-0.12 0.01h-18c-0.55 0-1-0.45-1-1 0-0.51 0.39-0.94 0.88-0.99l0.12-0.01h18-18zm0-6h18c0.55 0 1 0.45 1 1 0 0.51-0.39 0.94-0.88 0.99l-0.12 0.01h-18c-0.55 0-1-0.45-1-1 0-0.51 0.39-0.94 0.88-0.99l0.12-0.01h18-18z"/>
 </symbol>
 <symbol id="note" viewBox="0 0 20 20">
  <path d="m16 1c1.8 0 3.2 1.5 3.2 3.2v6.8h-4.8c-1.8 0-3.2 1.5-3.2 3.2v4.8h-6.8c-1.8 0-3.2-1.5-3.2-3.2v-12c0-1.8 1.5-3.2 3.2-3.2h12zm2.8 12-6.1 6.1v-4.3c0-0.97 0.78-1.8 1.8-1.8h4.3z"/>
 </symbol>
 <symbol id="open" viewBox="0 0 20 20">
  <path d="m5.2 2.5h3.5c0.41 0 0.75 0.34 0.75 0.75 0 0.38-0.28 0.69-0.65 0.74l-0.1 0.01h-3.5c-1.2 0-2.2 0.91-2.2 2.1l-0.01 0.16v8.5c0 1.2 0.93 2.2 2.1 2.2l0.15 0.01 8.5-0.01c1.2 0 2.2-0.93 2.2-2.1l0.01-0.15v-3.5c0-0.41 0.33-0.75 0.75-0.75 0.38 0 0.69 0.28 0.74 0.65l0.01 0.1v3.5c0 2-1.6 3.6-3.6 3.7l-0.2 0.01-8.5 0.01-0.21-0.01c-1.9-0.09-3.4-1.6-3.5-3.5l-0.01-0.2v-8.5-0.2c0.1-1.9 1.6-3.4 3.6-3.5l0.2-0.01h3.5-3.5zm6.8-1.5h6l0.1 0.01 0.08 0.02 0.11 0.03 0.12 0.05 0.05 0.03c0.26 0.16 0.45 0.43 0.48 0.74l0.01 0.12v6c0 0.55-0.45 1-1 1-0.51 0-0.94-0.39-0.99-0.89l-0.01-0.11v-3.6l-6.3 6.3c-0.36 0.36-0.93 0.39-1.3 0.08l-0.1-0.08c-0.36-0.36-0.39-0.93-0.08-1.3l0.08-0.1 6.3-6.3h-3.6c-0.51 0-0.93-0.39-0.99-0.88l-0.01-0.12c0-0.55 0.45-1 1-1z"/>
 </symbol>
 <symbol id="paste" viewBox="0 0 20 20">
  <path d="m11 0c1.2 0 2.1 0.87 2.2 2h1.8c1.2 0 2.2 0.92 2.2 2.1l0.01 0.16c0 0.38-0.28 0.69-0.65 0.74l-0.1 0.01c-0.38 0-0.69-0.29-0.74-0.65l-0.01-0.1c0-0.38-0.28-0.7-0.65-0.75h-0.1-2.1c-0.41 0.6-1.1 0.99-1.9 0.99h-3.5c-0.78 0-1.5-0.39-1.9-0.99h-2.1c-0.38 0-0.69 0.28-0.74 0.65l-0.01 0.1v14c0 0.38 0.28 0.7 0.65 0.75h0.1 3c0.38 0 0.69 0.28 0.74 0.65l0.01 0.1c0 0.42-0.34 0.75-0.75 0.75h-3c-1.2 0-2.2-0.92-2.2-2.1l-0.01-0.16v-14c0-1.2 0.93-2.2 2.1-2.2h0.15 1.8c0.13-1.1 1.1-2 2.2-2h3.5zm6 6c1.2 0 2.2 0.92 2.2 2.1l0.01 0.16v9.5c0 1.2-0.93 2.2-2.1 2.2l-0.15 0.01h-6.5c-1.2 0-2.2-0.93-2.2-2.1l-0.01-0.15v-9.5c0-1.2 0.93-2.2 2.1-2.2h0.15 6.5zm-6-4.5h-3.5c-0.42 0-0.75 0.33-0.75 0.74 0 0.42 0.33 0.75 0.75 0.75h3.5c0.42 0 0.75-0.33 0.75-0.75 0-0.41-0.33-0.74-0.75-0.74z"/>
 </symbol>
 <symbol id="person" viewBox="0 0 20 20">
  <path d="m16 12c1.2 0 2.2 1 2.2 2.2v0.91c0 0.58-0.18 1.1-0.51 1.6-1.6 2.2-4.1 3.2-7.5 3.2s-6-1.1-7.5-3.2c-0.33-0.46-0.51-1-0.51-1.6v-0.92c0-1.2 1-2.2 2.2-2.2h12zm-5.8-12c2.8 0 5 2.2 5 5s-2.2 5-5 5-5-2.2-5-5 2.2-5 5-5z"/>
 </symbol>
 <symbol id="pin" viewBox="0 0 20 20">
  <path d="m19 5.8-4.8-4.8c-1.3-1.3-3.6-0.96-4.4 0.72l-2.4 4.9c-0.08 0.17-0.24 0.31-0.42 0.37l-4.2 1.4c-0.87 0.3-1.1 1.4-0.48 2.1l3.1 3.1-4.4 4.4v1.1h1.1l4.4-4.4 3.1 3.1c0.66 0.65 1.8 0.39 2.1-0.48l1.4-4.2c0.06-0.18 0.2-0.33 0.37-0.42l4.9-2.4c1.7-0.84 2-3.1 0.72-4.4z"/>
 </symbol>
 <symbol id="question" viewBox="0 0 20 20">
  <path d="m15 7c0 1.2-0.3 2.1-0.81 2.8-0.49 0.68-1.1 1.1-1.6 1.5l-0.06 0.03c-0.51 0.35-0.85 0.59-1.1 0.91-0.22 0.27-0.4 0.64-0.4 1.3v0.5c0 0.55-0.45 1-1 1s-1-0.45-1-1v-0.5c0-1.1 0.32-1.9 0.85-2.6 0.45-0.54 1-0.94 1.5-1.2l0.11-0.08c0.51-0.35 0.87-0.62 1.1-0.99 0.24-0.33 0.44-0.81 0.44-1.6 0-1.7-1.3-3-3-3s-3 1.3-3 3c0 0.55-0.45 1-1 1s-1-0.45-1-1c0-2.8 2.2-5 5-5s5 2.2 5 5zm-6.2 11c0-0.69 0.56-1.2 1.2-1.2s1.2 0.56 1.2 1.2-0.56 1.2-1.2 1.2-1.2-0.56-1.2-1.2z"/>
 </symbol>
 <symbol id="refresh" viewBox="0 0 20 20">
  <path d="m10 2.8c-4 0-7.2 3.2-7.2 7.2s3.2 7.2 7.2 7.2 7.2-3.2 7.2-7.2c0-0.29-0.02-0.57-0.05-0.84-0.07-0.59 0.36-1.2 0.95-1.2 0.52 0 0.97 0.36 1 0.87 0.05 0.37 0.07 0.75 0.07 1.1 0 5.1-4.1 9.2-9.2 9.2s-9.2-4.1-9.2-9.2 4.1-9.2 9.2-9.2c2.2 0 4.2 0.75 5.8 2v-0.5c0-0.55 0.45-1 1-1s1 0.45 1 1v2.7c0.01 0.02 0.02 0.03 0.03 0.05h-0.03v0.25c0 0.55-0.45 1-1 1h-3c-0.55 0-1-0.45-1-1s0.45-1 1-1h0.67c-1.2-0.94-2.8-1.5-4.4-1.5z"/>
 </symbol>
 <symbol id="remove" viewBox="0 0 20 20">
  <path d="m2 9h16c0.51 0 0.94 0.39 0.99 0.88l0.01 0.12c0 0.51-0.39 0.94-0.88 0.99l-0.12 0.01h-16c-0.51 0-0.94-0.39-0.99-0.88l-0.01-0.12c0-0.51 0.39-0.94 0.88-0.99l0.12-0.01z"/>
 </symbol>
 <symbol id="search" viewBox="0 0 20 20">
  <path d="m8.2 0.75c4.1 0 7.5 3.4 7.5 7.5 0 1.7-0.57 3.3-1.5 4.6l4.8 4.7c0.39 0.39 0.39 1 0 1.4-0.36 0.36-0.93 0.39-1.3 0.08l-0.1-0.08-4.7-4.8c-1.3 0.97-2.8 1.5-4.6 1.5-4.1 0-7.5-3.4-7.5-7.5s3.4-7.5 7.5-7.5zm0 2c-3 0-5.5 2.5-5.5 5.5s2.5 5.5 5.5 5.5 5.5-2.5 5.5-5.5-2.5-5.5-5.5-5.5z"/>
 </symbol>
 <symbol id="send" viewBox="0 0 20 20">
  <path d="m11 10-7.5 1.2c-0.18 0.03-0.33 0.15-0.39 0.32l-2.6 7c-0.25 0.64 0.42 1.2 1 0.94l18-9c0.55-0.28 0.55-1.1 0-1.3l-18-9c-0.62-0.31-1.3 0.3-1 0.94l2.6 7c0.06 0.17 0.21 0.29 0.39 0.32l7.5 1.2c0.11 0.02 0.18 0.12 0.16 0.23-0.01 0.09-0.08 0.15-0.16 0.17z"/>
 </symbol>
 <symbol id="settings" viewBox="0 0 20 20">
  <path d="m10 0.25c0.73 0.01 1.5 0.09 2.2 0.25 0.31 0.07 0.55 0.33 0.58 0.65l0.17 1.5c0.08 0.7 0.67 1.2 1.4 1.2 0.19 0 0.38-0.04 0.55-0.12l1.4-0.61c0.29-0.13 0.63-0.06 0.85 0.17 1 1.1 1.8 2.4 2.2 3.8 0.09 0.3-0.02 0.63-0.28 0.82l-1.2 0.92c-0.35 0.26-0.56 0.67-0.56 1.1s0.21 0.85 0.56 1.1l1.2 0.92c0.25 0.19 0.36 0.52 0.27 0.82-0.44 1.4-1.2 2.7-2.2 3.8-0.21 0.23-0.55 0.3-0.84 0.17l-1.4-0.62c-0.4-0.17-0.86-0.15-1.2 0.07-0.39 0.22-0.64 0.61-0.69 1l-0.17 1.5c-0.03 0.32-0.26 0.58-0.57 0.65-1.4 0.35-3 0.35-4.4 0-0.31-0.07-0.54-0.33-0.58-0.65l-0.16-1.5c-0.05-0.44-0.31-0.82-0.69-1s-0.84-0.25-1.2-0.07l-1.4 0.62c-0.29 0.12-0.63 0.05-0.84-0.18-1-1.1-1.8-2.4-2.2-3.8-0.09-0.3 0.02-0.63 0.27-0.82l1.2-0.92c0.35-0.26 0.56-0.67 0.56-1.1s-0.21-0.85-0.56-1.1l-1.2-0.92c-0.25-0.19-0.36-0.52-0.27-0.82 0.44-1.4 1.2-2.7 2.2-3.8 0.21-0.23 0.55-0.3 0.85-0.17l1.4 0.62c0.4 0.17 0.86 0.15 1.2-0.08 0.38-0.22 0.64-0.61 0.69-1l0.17-1.5c0.03-0.32 0.27-0.58 0.58-0.65 0.72-0.16 1.4-0.24 2.2-0.25zm-0.01 6.8c-1.7 0-3 1.3-3 3s1.3 3 3 3 3-1.3 3-3-1.3-3-3-3z"/>
 </symbol>
 <symbol id="sort" viewBox="0 0 20 20">
  <path d="m2 4h16c0.51 0 0.94 0.39 0.99 0.88l0.01 0.12c0 0.51-0.39 0.94-0.88 0.99l-0.12 0.01h-16c-0.51 0-0.94-0.39-0.99-0.88l-0.01-0.12c0-0.51 0.39-0.94 0.88-0.99zm0 5h10c0.51 0 0.94 0.39 0.99 0.88l0.01 0.12c0 0.51-0.39 0.94-0.88 0.99l-0.12 0.01h-10c-0.51 0-0.94-0.39-0.99-0.88l-0.01-0.12c0-0.51 0.39-0.94 0.88-0.99zm0 5h4c0.51 0 0.94 0.39 0.99 0.88l0.01 0.12c0 0.51-0.39 0.94-0.88 0.99l-0.12 0.01h-4c-0.51 0-0.94-0.39-0.99-0.88l-0.01-0.12c0-0.51 0.39-0.94 0.88-0.99z"/>
 </symbol>
 <symbol id="toggle-off" viewBox="0 0 20 20">
  <path d="m15 5c2.8 0 5 2.2 5 5s-2.2 5-5 5h-10c-2.8 0-5-2.2-5-5s2.2-5 5-5h10zm-9.8 7.5c1.4 0 2.5-1.1 2.5-2.5s-1.1-2.5-2.5-2.5-2.5 1.1-2.5 2.5 1.1 2.5 2.5 2.5z"/>
 </symbol>
 <symbol id="toggle-on" viewBox="0 0 20 20">
  <path d="m5 5c-2.8 0-5 2.2-5 5s2.2 5 5 5h10c2.8 0 5-2.2 5-5s-2.2-5-5-5h-10zm9.8 7.5c-1.4 0-2.5-1.1-2.5-2.5s1.1-2.5 2.5-2.5 2.5 1.1 2.5 2.5-1.1 2.5-2.5 2.5z"/>
 </symbol>
 <symbol id="wrench" viewBox="0 0 20 20">
  <path d="m15 0c-2.9 0-5.2 2.4-5.2 5.2 0 0.55 0.09 1.1 0.25 1.6l-9.1 9.4c-0.96 0.99-0.86 2.6 0.22 3.5 0.94 0.75 2.3 0.67 3.2-0.2l9-9.3c0.55 0.2 1.1 0.3 1.7 0.3 2.9 0 5.2-2.4 5.2-5.2 0-0.5-0.07-0.99-0.2-1.4-0.08-0.26-0.28-0.45-0.54-0.52-0.25-0.07-0.53 0.01-0.71 0.19l-3.2 3.2-2.1-2.1 3.2-3.2c0.19-0.19 0.27-0.47 0.2-0.73-0.07-0.25-0.27-0.46-0.53-0.53-0.44-0.12-0.9-0.18-1.4-0.18z"/>
 </symbol>
 <symbol id="vehicle-airplane" viewBox="0 0 20 20">
  <path d="m20 10c0 1.1-0.89 2-2 2h-0.06l-4.7-0.14-3.4 7.1c-0.28 0.57-0.86 0.94-1.5 0.94-0.51 0-0.93-0.42-0.93-0.93 0-0.03 0.01-0.07 0.01-0.11l0.86-7.2-3.8-0.11-0.49 1.3c-0.19 0.51-0.67 0.85-1.2 0.85-0.5 0-0.91-0.41-0.91-0.9l0.01-1.5-0.82-0.17c-0.58-0.12-1-0.64-1-1.2 0-0.6 0.42-1.1 1-1.2l0.82-0.17-0.01-1.5c0-0.46 0.35-0.84 0.79-0.9l0.12-0.01c0.54 0 1 0.34 1.2 0.85l0.49 1.3 3.8-0.11-0.85-7.1v-0.06l-0.01-0.05c0-0.51 0.42-0.93 0.93-0.93 0.58 0 1.1 0.31 1.4 0.8l0.08 0.14 3.4 7 4.8-0.14c1.1-0.04 2 0.83 2 1.9v0.06z"/>
 </symbol>
 <symbol id="vehicle-bicycle" viewBox="0 0 20 20">
  <path d="m11 1c-0.55 0-1 0.45-1 1s0.45 1 1 1h1.2l0.62 3h-5.8v-1c0-0.55-0.45-1-1-1h-3c-0.55 0-1 0.45-1 1s0.45 1 1 1h2v0.86l-0.9 3.2c-2.3 0.2-4.1 2.1-4.1 4.5 0 2.5 2 4.5 4.5 4.5s4.5-2 4.5-4.5v-0.13l4.5-5.2 0.25 1.2c-1.6 0.68-2.7 2.3-2.7 4.1 0 2.5 2 4.5 4.5 4.5s4.5-2 4.5-4.5c0-2.4-1.9-4.4-4.3-4.5l-1.7-8.2c-0.1-0.47-0.51-0.8-0.98-0.8h-2zm3.1 11 0.38 1.8c0.11 0.54 0.64 0.89 1.2 0.78s0.89-0.64 0.78-1.2l-0.36-1.7c1.1 0.27 1.9 1.2 1.9 2.4 0 1.4-1.1 2.5-2.5 2.5s-2.5-1.1-2.5-2.5c0-0.88 0.46-1.7 1.1-2.1zm-5.8-0.3c-0.52-0.82-1.3-1.5-2.2-1.8l0.65-2.3h5.1l-3.5 4.1zm-2.8 0.13c0.37 0.17 0.7 0.44 0.95 0.77h-1.2l0.22-0.77zm-2.1-0.01-0.43 1.5c-0.09 0.3-0.03 0.62 0.16 0.87s0.49 0.4 0.8 0.4h3c-0.23 1.1-1.2 2-2.4 2-1.4 0-2.5-1.1-2.5-2.5 0-1 0.6-1.9 1.5-2.3z"/>
 </symbol>
 <symbol id="vehicle-boat" viewBox="0 0 20 20">
  <path d="m6.8 0c-0.41 0-0.75 0.34-0.75 0.75v2.2h-2.2c-0.41 0-0.75 0.34-0.75 0.75v4.8l-1.5 0.54c-0.2 0.07-0.36 0.22-0.44 0.42-0.08 0.19-0.07 0.41 0.02 0.6l2.3 5c0.17-0.06 0.34-0.09 0.52-0.09 0.78-0.01 1.5 0.49 1.7 1.2 0 0.01 0.01 0.01 0.01 0.03 0.01 0.03 0.04 0.09 0.07 0.16 0.07 0.15 0.17 0.35 0.31 0.53 0.27 0.37 0.56 0.55 0.94 0.55s0.67-0.18 0.94-0.55c0.14-0.18 0.24-0.38 0.31-0.53 0.03-0.07 0.06-0.13 0.07-0.16 0-0.01 0.01-0.02 0.01-0.03 0.22-0.73 0.9-1.2 1.7-1.2 0.76 0 1.4 0.5 1.7 1.2 0 0 0 0.01 0.01 0.03 0.01 0.03 0.03 0.09 0.07 0.16 0.07 0.15 0.17 0.35 0.31 0.53 0.27 0.37 0.56 0.55 0.94 0.55s0.67-0.18 0.94-0.55c0.14-0.18 0.24-0.38 0.31-0.53 0.04-0.07 0.06-0.13 0.07-0.16 0.01-0.02 0.01-0.03 0.01-0.03 0.23-0.74 0.92-1.2 1.7-1.2 0.21 0 0.41 0.04 0.59 0.11l2.5-5c0.1-0.19 0.1-0.41 0.02-0.61s-0.24-0.35-0.44-0.42l-1.7-0.6v-4.7c0-0.41-0.34-0.75-0.75-0.75h-2.2v-2.2c0-0.41-0.34-0.75-0.75-0.75h-6.5zm5.8 3h-5v-1.5h5v1.5zm3 1.5v3.4l-4.4-1.6c-0.71-0.26-1.5-0.25-2.2 0.01l-4.4 1.6v-3.5h11z"/>
  <path d="m17 17-0.01-0.01c-0.08-0.32-0.37-0.54-0.71-0.55-0.33-0.01-0.63 0.21-0.73 0.53v0.01c0 0.01-0.01 0.03-0.02 0.06-0.02 0.05-0.05 0.13-0.1 0.23-0.09 0.2-0.22 0.46-0.42 0.72-0.38 0.52-0.94 0.95-1.7 0.95s-1.4-0.44-1.7-0.95c-0.2-0.26-0.33-0.52-0.42-0.72-0.05-0.1-0.08-0.18-0.1-0.23-0.01-0.03-0.02-0.05-0.02-0.06v-0.01c-0.1-0.31-0.39-0.53-0.72-0.53s-0.62 0.22-0.72 0.53v0.01c-0.01 0.01-0.01 0.03-0.02 0.06-0.02 0.05-0.05 0.13-0.1 0.23-0.09 0.2-0.22 0.46-0.42 0.72-0.38 0.51-0.93 0.95-1.7 0.95s-1.4-0.44-1.7-0.95c-0.2-0.26-0.33-0.52-0.42-0.72-0.05-0.1-0.08-0.18-0.1-0.23-0.01-0.03-0.02-0.05-0.02-0.06v-0.01c-0.1-0.32-0.4-0.53-0.73-0.53-0.34 0.01-0.63 0.23-0.71 0.55l-0.01 0.01c0 0.01 0 0.03-0.01 0.05-0.02 0.06-0.05 0.13-0.09 0.23-0.09 0.19-0.22 0.45-0.42 0.7-0.38 0.49-0.99 0.96-2 0.96-0.41 0-0.75 0.34-0.75 0.75s0.34 0.75 0.75 0.75c1.6 0 2.6-0.78 3.2-1.5 0.03-0.03 0.05-0.06 0.07-0.09 0.02 0.03 0.04 0.05 0.06 0.08 0.55 0.74 1.5 1.6 2.9 1.6s2.4-0.81 2.9-1.6c0.02-0.03 0.04-0.05 0.06-0.08 0.02 0.03 0.04 0.05 0.06 0.08 0.55 0.74 1.5 1.6 2.9 1.6s2.4-0.82 2.9-1.6c0.02-0.02 0.04-0.05 0.06-0.07 0.02 0.02 0.04 0.05 0.06 0.08 0.6 0.76 1.6 1.5 3.2 1.5 0.41 0 0.75-0.34 0.75-0.75s-0.34-0.75-0.75-0.75c-1 0-1.6-0.47-2-0.96-0.19-0.25-0.33-0.51-0.41-0.7-0.04-0.09-0.07-0.17-0.09-0.22 0-0.03-0.01-0.05-0.01-0.06z"/>
 </symbol>
 <symbol id="vehicle-bus" viewBox="0 0 20 20">
  <path d="m11 3c0.42 0 0.75 0.34 0.75 0.75 0 0.42-0.33 0.75-0.75 0.75h-2.5c-0.41 0-0.75-0.33-0.75-0.75 0-0.41 0.34-0.75 0.75-0.75zm-9.2 0.75c0-2.1 1.7-3.8 3.8-3.8h8.5c2.1 0 3.8 1.7 3.8 3.8v3.8h1.2c0.41 0 0.75 0.34 0.75 0.75 0 0.42-0.34 0.75-0.75 0.75h-1.2v8.8c0 0.97-0.78 1.8-1.8 1.8h-1.5c-0.96 0-1.8-0.78-1.8-1.8v-1.2h-6v1.2c0 0.97-0.78 1.8-1.8 1.8h-1.5c-0.96 0-1.8-0.78-1.8-1.8v-8.8h-1.2c-0.41 0-0.75-0.33-0.75-0.75 0-0.41 0.34-0.75 0.75-0.75h1.2zm12 13v1.2c0 0.14 0.11 0.25 0.25 0.25h1.5c0.14 0 0.25-0.11 0.25-0.25v-1.2zm-11 0v1.2c0 0.14 0.11 0.25 0.25 0.25h1.5c0.14 0 0.25-0.11 0.25-0.25v-1.2zm2.2-15c-1.2 0-2.2 1-2.2 2.2v6.2h13v-6.2c0-1.2-1-2.2-2.2-2.2zm1.2 12c0-0.55-0.45-1-1-1s-1 0.45-1 1c0 0.56 0.45 1 1 1s1-0.44 1-1zm7 1c0.55 0 1-0.44 1-1 0-0.55-0.45-1-1-1s-1 0.45-1 1c0 0.56 0.45 1 1 1z"/>
 </symbol>
 <symbol id="vehicle-car" viewBox="0 0 20 20">
  <path d="m14 1c1.5 0 2.8 1 3.2 2.5l0.38 1.5h0.92c0.38 0 0.69 0.28 0.74 0.65l0.01 0.1c0 0.38-0.28 0.7-0.65 0.74l-0.1 0.01h-0.54l0.21 0.83c0.65 0.39 1.1 1.1 1.1 1.9v8.5c0 0.96-0.78 1.8-1.8 1.8h-1.5c-0.97 0-1.8-0.79-1.8-1.8v-1.2h-8v1.2c0 0.96-0.78 1.8-1.8 1.8h-1.5c-0.97 0-1.8-0.79-1.8-1.8v-8.5c0-0.81 0.43-1.5 1.1-1.9l0.21-0.83h-0.54c-0.38 0-0.7-0.28-0.75-0.65v-0.1c0-0.38 0.28-0.69 0.65-0.74l0.1-0.01h0.91l0.39-1.5c0.36-1.4 1.7-2.5 3.2-2.5h7.6zm-9.3 16h-2v1.2c0 0.14 0.11 0.25 0.25 0.25h1.5c0.14 0 0.25-0.11 0.25-0.25v-1.2zm13 0h-2v1.2c0 0.14 0.11 0.25 0.25 0.25h1.5c0.14 0 0.25-0.11 0.25-0.25v-1.2zm-5.8-4.5h-3.5l-0.1 0.01c-0.37 0.05-0.65 0.36-0.65 0.74s0.28 0.7 0.65 0.74l0.1 0.01h3.5l0.1-0.01c0.37-0.04 0.65-0.36 0.65-0.74 0-0.41-0.34-0.75-0.75-0.75zm3.2-2c-0.55 0-1 0.45-1 1s0.45 1 1 1 1-0.45 1-1-0.45-1-1-1zm-10 0c-0.55 0-1 0.45-1 1s0.45 1 1 1 1-0.45 1-1-0.45-1-1-1zm8.8-7.5h-7.6c-0.8 0-1.5 0.55-1.7 1.3l-0.79 3.2h13l-0.8-3.2c-0.19-0.78-0.89-1.3-1.7-1.3z"/>
 </symbol>
 <symbol id="visibility-visible" viewBox="0 0 20 20">
  <path d="m10 7c2.2 0 4 1.8 4 4s-1.8 4-4 4c-2.2 0-4-1.8-4-4s1.8-4 4-4zm0-3.5c4.6 0 8.6 3.2 9.7 7.6 0.1 0.4-0.15 0.81-0.55 0.91s-0.81-0.14-0.91-0.55c-0.94-3.8-4.3-6.4-8.2-6.4-3.9 0-7.3 2.7-8.2 6.4-0.1 0.4-0.51 0.64-0.91 0.54s-0.65-0.5-0.55-0.9c1.1-4.4 5.1-7.6 9.7-7.6z"/>
 </symbol>
 <symbol id="visibility-hidden" viewBox="0 0 20 20">
  <path d="m0.22 0.22c-0.27 0.27-0.29 0.68-0.07 0.98l0.07 0.08 4 4c-1.9 1.4-3.4 3.4-4 5.8-0.1 0.41 0.14 0.81 0.54 0.91 0.41 0.1 0.81-0.14 0.91-0.54 0.53-2.1 1.8-3.9 3.6-5l1.8 1.8c-0.7 0.73-1.1 1.7-1.1 2.8 0 2.2 1.8 4 4 4 1.1 0 2.1-0.43 2.8-1.1l5.9 5.9c0.29 0.29 0.77 0.29 1.1 0 0.27-0.27 0.29-0.68 0.07-0.98l-0.07-0.08-6.1-6.1v-0.01l-12-12c-0.29-0.29-0.77-0.29-1.1 0zm9.8 3.3c-1 0-2 0.15-2.9 0.43l1.2 1.2c0.53-0.1 1.1-0.16 1.6-0.16 3.9 0 7.3 2.7 8.2 6.4 0.1 0.41 0.5 0.65 0.91 0.55 0.4-0.1 0.64-0.51 0.54-0.91-1.1-4.4-5.1-7.6-9.7-7.6zm0.19 3.5 3.8 3.8c-0.11-2.1-1.8-3.7-3.8-3.8z"/>
 </symbol>
 <symbol id="text-align-center" viewBox="0 0 20 20">
  <path d="m2 4c0-0.55 0.45-1 1-1h14c0.55 0 1 0.45 1 1s-0.45 1-1 1h-14c-0.55 0-1-0.45-1-1zm2 12c0-0.55 0.45-1 1-1h10c0.55 0 1 0.45 1 1s-0.45 1-1 1h-10c-0.55 0-1-0.45-1-1zm15-7c0.55 0 1 0.45 1 1s-0.45 1-1 1h-18c-0.55 0-1-0.45-1-1s0.45-1 1-1z"/>
 </symbol>
 <symbol id="text-align-left" viewBox="0 0 20 20">
  <path d="m0 4c0-0.55 0.45-1 1-1h15c0.55 0 1 0.45 1 1s-0.45 1-1 1h-15c-0.55 0-1-0.45-1-1zm0 12c0-0.55 0.45-1 1-1h11c0.55 0 1 0.45 1 1s-0.45 1-1 1h-11c-0.55 0-1-0.45-1-1zm19-7c0.55 0 1 0.45 1 1s-0.45 1-1 1h-18c-0.55 0-1-0.45-1-1s0.45-1 1-1z"/>
 </symbol>
 <symbol id="text-align-right" viewBox="0 0 20 20">
  <path d="m20 4c0-0.55-0.45-1-1-1h-15c-0.55 0-1 0.45-1 1s0.45 1 1 1h15c0.55 0 1-0.45 1-1zm0 12c0-0.55-0.45-1-1-1h-11c-0.55 0-1 0.45-1 1s0.45 1 1 1h11c0.55 0 1-0.45 1-1zm-19-7c-0.55 0-1 0.45-1 1s0.45 1 1 1h18c0.55 0 1-0.45 1-1s-0.45-1-1-1z"/>
 </symbol>
 <symbol id="text-align-justify" viewBox="0 0 20 20">
  <path d="m19 3c0.55 0 1 0.45 1 1s-0.45 1-1 1h-18c-0.55 0-1-0.45-1-1s0.45-1 1-1zm0 6c0.55 0 1 0.45 1 1s-0.45 1-1 1h-18c-0.55 0-1-0.45-1-1s0.45-1 1-1zm0 6c0.55 0 1 0.45 1 1s-0.45 1-1 1h-18c-0.55 0-1-0.45-1-1s0.45-1 1-1z"/>
 </symbol>
 <symbol id="text-bold" viewBox="0 0 20 20">
  <path d="m4 3.8c0-0.97 0.78-1.8 1.8-1.8h4.8c2.8 0 4.8 2.3 4.8 4.8 0 0.93-0.29 1.8-0.8 2.6 0.92 0.86 1.6 2.1 1.6 3.6 0 3.1-2.7 5-5 5h-5.2c-0.97 0-1.8-0.78-1.8-1.8v-12zm3.5 7.8v3h3.5c0.31 0 0.71-0.14 1-0.42 0.29-0.26 0.48-0.62 0.48-1.1 0-0.89-0.75-1.5-1.5-1.5h-3.5zm0-3.5h3c0.72 0 1.2-0.59 1.2-1.2s-0.54-1.2-1.2-1.2h-3v2.5z"/>
 </symbol>
 <symbol id="text-italic" viewBox="0 0 20 20">
  <path d="m8.6 16h3.8c0.55 0 1 0.45 1 1s-0.45 1-1 1h-9.5c-0.56 0-1-0.45-1-1s0.44-1 1-1h3.5l4.8-12h-3.3c-0.56 0-1-0.45-1-1s0.44-1 1-1h8.5c0.55 0 1 0.45 1 1s-0.45 1-1 1h-3l-4.8 12z"/>
 </symbol>
 <symbol id="text-strikethrough" viewBox="0 0 20 20">
  <path d="m12 9.5h5.6c0.55 0 1 0.45 1 1s-0.45 1-1 1h-2.4c0.66 0.77 1 1.7 1 2.7 0 2.9-3.3 4.9-7 4.5-2.3-0.27-4-1.2-4.8-2.8-0.26-0.49-0.21-1 0.25-1.3 0.46-0.32 1.3-0.1 1.5 0.39 0.53 0.99 1.6 1.6 3.3 1.8 2.6 0.3 4.8-0.91 4.8-2.5 0-1.1-0.55-1.9-2.1-2.7h-9c-0.55 0-1-0.45-1-1s0.45-1 1-1h8.8 0.04zm-6.9-1.8c-0.11-0.15-0.21-0.32-0.3-0.51-0.3-0.59-0.47-1.2-0.44-1.8 0.16-3 2.9-4.7 6.6-4.3 2.3 0.27 4 1.1 5.1 2.5 0.35 0.43 0.28 1-0.15 1.4s-1 0.33-1.4-0.1c-0.81-0.99-2.1-1.6-3.8-1.8-2.6-0.3-4.4 0.72-4.4 2.3 0 0.72 0.24 1.2 0.77 1.8 0.22 0.26 0.64 0.53 1.3 0.82h-3.1c-0.11-0.17-0.18-0.27-0.2-0.31z"/>
 </symbol>
 <symbol id="text-underline" viewBox="0 0 20 20">
  <path d="m4 2.5c0-0.55 0.45-1 1-1s1 0.45 1 1v6c0 3.5 1.3 5 4.2 5s4.2-1.5 4.2-5v-6c0-0.55 0.45-1 1-1s1 0.45 1 1v6c0 4.5-2.2 7-6.2 7-4.1 0-6.2-2.5-6.2-7v-6zm1 16c-0.55 0-1-0.45-1-1s0.45-1 1-1h10c0.55 0 1 0.45 1 1s-0.45 1-1 1h-10z"/>
 </symbol>
 <symbol id="tune" viewBox="0 0 20 20">
  <path d="m6.8 12c1.5 0 2.8 1.1 3.2 2.5h9.3c0.41 0 0.75 0.34 0.75 0.75 0 0.38-0.28 0.69-0.65 0.74l-0.1 0.01h-9.3c-0.34 1.4-1.6 2.5-3.2 2.5s-2.8-1.1-3.2-2.5h-2.8c-0.41 0-0.75-0.34-0.75-0.75 0-0.38 0.28-0.69 0.65-0.74l0.1-0.01h2.8c0.34-1.4 1.6-2.5 3.2-2.5zm6.5-9.5c1.5 0 2.8 1.1 3.2 2.5h2.8c0.41 0 0.75 0.34 0.75 0.75 0 0.38-0.28 0.69-0.65 0.74l-0.1 0.01h-2.8c-0.34 1.4-1.6 2.5-3.2 2.5s-2.8-1.1-3.2-2.5h-9.3c-0.41 0-0.75-0.34-0.75-0.75 0-0.38 0.28-0.69 0.65-0.74l0.1-0.01h9.3c0.34-1.4 1.6-2.5 3.2-2.5z"/>
 </symbol>
</svg>
