<?xml version="1.0" encoding="UTF-8"?>
<svg version="1.1" xmlns="http://www.w3.org/2000/svg">
 <symbol id="add" viewBox="0 0 20 20">
  <path d="m10 1.2c0.38 0 0.69 0.28 0.74 0.65v7.4h7.3c0.58-0.03 0.98 0.57 0.72 1.1-0.11 0.24-0.35 0.4-0.62 0.41h-7.4v7.2c0.04 0.58-0.56 0.98-1.1 0.73-0.24-0.12-0.4-0.36-0.42-0.63v-7.4h-7.2c-0.58 0.04-0.98-0.56-0.72-1.1 0.11-0.24 0.35-0.4 0.62-0.42h7.4v-7.2c0-0.41 0.33-0.75 0.75-0.75z"/>
 </symbol>
 <symbol id="alert" viewBox="0 0 20 20">
  <path d="m10 0c4 0 7.4 3.2 7.5 7.2l0.01 0.25v4.1l1.4 3.2c0.06 0.16 0.1 0.33 0.1 0.5 0 0.7-0.56 1.2-1.2 1.2l-4.7 0.01c0 1.6-1.4 3-3 3-1.6 0-2.9-1.2-3-2.8l-0.01-0.18h-4.7c-0.17 0-0.34-0.03-0.5-0.1-0.63-0.27-0.92-1-0.65-1.6l1.4-3.2v-4.1c0-4.2 3.4-7.5 7.5-7.5zm1.5 16-3 0.01c0 0.82 0.67 1.5 1.5 1.5 0.78 0 1.4-0.6 1.5-1.4v-0.15zm-1.5-15c-3.3 0-6 2.7-6 6v4.4l-1.4 3.1h15l-1.4-3.1v-4.4l-0.01-0.22c-0.11-3.2-2.8-5.8-6-5.8z" fill="#212121"/>
 </symbol>
 <symbol id="bookmark" viewBox="0 0 20 20">
  <path d="m4.2 20c-0.5 0.35-1.2 0-1.2-0.61v-15c0-1.8 1.5-3.2 3.2-3.2h7.5c1.8 0 3.2 1.5 3.2 3.2v15c0 0.61-0.69 0.96-1.2 0.61l-5.8-4.2-5.8 4.2zm11-16c0-0.97-0.78-1.8-1.8-1.8h-7.5c-0.97 0-1.8 0.78-1.8 1.8v14l5.1-3.6c0.26-0.19 0.62-0.19 0.88 0l5.1 3.6v-14z"/>
 </symbol>
 <symbol id="bug" viewBox="0 0 20 20">
  <path d="m8.5 0.75c0-0.42-0.34-0.75-0.75-0.75s-0.75 0.33-0.75 0.75v0.75c0 0.63 0.2 1.2 0.53 1.7-1.4 0.48-2.4 1.8-2.5 3.3h-0.25-0.01c-1.2 0-2.2-1-2.2-2.2l0.01-1.5c0-0.41-0.33-0.75-0.75-0.75-0.41-0.01-0.75 0.33-0.75 0.74l-0.01 1.5c-0.01 2.1 1.7 3.8 3.7 3.8h0.01 0.24v1.5h-4.2c-0.41 0-0.75 0.34-0.75 0.75 0 0.42 0.34 0.75 0.75 0.75h4.2v2h-0.24-0.01c-2.1 0.01-3.8 1.7-3.7 3.8l0.01 1.5c0 0.41 0.34 0.75 0.75 0.74 0.42 0 0.75-0.33 0.75-0.75l-0.01-1.5c0-1.2 1-2.3 2.2-2.3h0.01 0.47c0.63 2 2.5 3.5 4.8 3.5s4.1-1.5 4.8-3.5h0.47 0.01c1.2 0 2.2 1 2.2 2.3l-0.01 1.5c0 0.42 0.33 0.75 0.75 0.75 0.41 0.01 0.75-0.33 0.75-0.74l0.01-1.5c0.01-2.1-1.7-3.8-3.7-3.8h-0.01-0.24v-2h4.2c0.41 0 0.75-0.33 0.75-0.75 0-0.41-0.34-0.75-0.75-0.75h-4.2v-1.5h0.24 0.01c2.1 0 3.8-1.7 3.7-3.8l-0.01-1.5c0-0.41-0.34-0.75-0.75-0.74-0.42 0-0.75 0.34-0.75 0.75l0.01 1.5c0 1.2-1 2.2-2.2 2.2h-0.01-0.25c-0.11-1.5-1.1-2.8-2.5-3.3 0.33-0.48 0.53-1.1 0.53-1.7v-0.75c0-0.42-0.34-0.75-0.75-0.75s-0.75 0.33-0.75 0.75v0.75c0 0.83-0.67 1.5-1.5 1.5s-1.5-0.67-1.5-1.5v-0.75zm-2 6c0-1.2 1-2.2 2.2-2.2h2.5c1.2 0 2.2 1 2.2 2.2v6.2c0 1.9-1.6 3.5-3.5 3.5s-3.5-1.6-3.5-3.5v-6.2z"/>
 </symbol>
 <symbol id="calendar" viewBox="0 0 20 20">
  <path d="m16 1c1.8 0 3.2 1.5 3.2 3.2v12c0 1.8-1.5 3.2-3.2 3.2h-12c-1.8 0-3.2-1.5-3.2-3.2v-12c0-1.8 1.5-3.2 3.2-3.2h12zm1.8 5.5h-15v9.2c0 0.97 0.78 1.8 1.8 1.8h12c0.97 0 1.8-0.78 1.8-1.8v-9.2zm-12 6c0.69 0 1.2 0.56 1.2 1.2s-0.56 1.2-1.2 1.2-1.2-0.56-1.2-1.2 0.56-1.2 1.2-1.2zm4.2 0c0.69 0 1.2 0.56 1.2 1.2s-0.56 1.2-1.2 1.2-1.2-0.56-1.2-1.2 0.56-1.2 1.2-1.2zm-4.2-4c0.69 0 1.2 0.56 1.2 1.2s-0.56 1.2-1.2 1.2-1.2-0.56-1.2-1.2 0.56-1.2 1.2-1.2zm4.2 0c0.69 0 1.2 0.56 1.2 1.2s-0.56 1.2-1.2 1.2-1.2-0.56-1.2-1.2 0.56-1.2 1.2-1.2zm4.2 0c0.69 0 1.2 0.56 1.2 1.2s-0.56 1.2-1.2 1.2-1.2-0.56-1.2-1.2 0.56-1.2 1.2-1.2zm1.5-6h-12c-0.97 0-1.8 0.78-1.8 1.8v0.75h15v-0.75c0-0.97-0.78-1.8-1.8-1.8z"/>
 </symbol>
 <symbol id="chevron-left" viewBox="0 0 20 20">
  <path d="m14 2.2c0.29 0.3 0.29 0.77 0 1.1l-6.7 6.7 6.7 6.7c0.42 0.4 0.26 1.1-0.3 1.3-0.27 0.08-0.57 0-0.76-0.21l-7.2-7.2c-0.3-0.29-0.3-0.76 0-1.1l7.2-7.2c0.29-0.3 0.76-0.3 1.1 0z"/>
 </symbol>
 <symbol id="chevron-right" viewBox="0 0 20 20">
  <path d="m5.8 2.2c-0.29 0.3-0.29 0.77 0 1.1l6.7 6.7-6.7 6.7c-0.42 0.39-0.26 1.1 0.29 1.3 0.28 0.08 0.57 0 0.77-0.21l7.3-7.2c0.29-0.3 0.29-0.77 0-1.1l-7.3-7.2c-0.29-0.29-0.77-0.29-1.1 0z"/>
 </symbol>
 <symbol id="clock" viewBox="0 0 20 20">
  <path d="m10 0c5.5 0 10 4.5 10 10s-4.5 10-10 10-10-4.5-10-10 4.5-10 10-10zm0 1.7c-4.6 0-8.3 3.7-8.3 8.3 0 4.6 3.7 8.3 8.3 8.3 4.6 0 8.3-3.7 8.3-8.3 0-4.6-3.7-8.3-8.3-8.3zm-0.75 2.3c0.38 0 0.69 0.28 0.74 0.65l0.01 0.1v5.2h3.2c0.41 0 0.75 0.34 0.75 0.75 0 0.38-0.28 0.69-0.65 0.74l-0.1 0.01h-4c-0.38 0-0.69-0.28-0.74-0.65l-0.01-0.1v-6c0-0.41 0.34-0.75 0.75-0.75z"/>
 </symbol>
 <symbol id="code" viewBox="0 0 20 20">
  <path d="m6.1 17 6.5-14c0.17-0.37 0.61-0.54 0.99-0.37 0.34 0.15 0.51 0.54 0.41 0.89l-0.04 0.1-6.5 14c-0.17 0.37-0.61 0.54-0.99 0.37-0.34-0.15-0.51-0.54-0.41-0.89l0.04-0.1 6.5-14-6.5 14zm-5.8-7.5 4.2-4.2c0.29-0.29 0.77-0.29 1.1 0 0.27 0.27 0.29 0.68 0.07 0.98l-0.07 0.08-3.7 3.7 3.7 3.7c0.29 0.29 0.29 0.77 0 1.1-0.27 0.27-0.68 0.29-0.98 0.07l-0.08-0.07-4.2-4.2c-0.27-0.27-0.29-0.68-0.07-0.98l0.07-0.08 4.2-4.2-4.2 4.2zm14-4.2c0.27-0.27 0.68-0.29 0.98-0.07l0.08 0.07 4.2 4.2c0.27 0.27 0.29 0.68 0.07 0.98l-0.07 0.08-4.2 4.2c-0.29 0.29-0.77 0.29-1.1 0-0.27-0.27-0.29-0.68-0.07-0.98l0.07-0.08 3.7-3.7-3.7-3.7c-0.29-0.29-0.29-0.77 0-1.1z"/>
 </symbol>
 <symbol id="color-palette" viewBox="0 0 20 20">
  <path d="m1.8 3.8c2.9-3.9 9-5.1 13-2.4 4.3 2.7 5.9 7.8 4.1 13-1.6 4.5-6 6.3-9.2 4-1.2-0.85-1.6-1.9-1.8-3.7l-0.1-0.99-0.05-0.4c-0.12-0.93-0.31-1.4-0.7-1.6-0.54-0.3-0.9-0.3-1.6-0.03l-0.35 0.15-0.18 0.07c-1 0.44-1.7 0.6-2.5 0.42l-0.37-0.09c-2.8-0.87-3.2-4.6-0.56-8.2zm0.98 6.7 0.26 0.06c0.44 0.09 0.82 0.02 1.4-0.24l0.6-0.26c1.2-0.49 2-0.54 3 0.05 0.92 0.51 1.3 1.3 1.5 2.7l0.06 0.46 0.05 0.53 0.05 0.43c0.17 1.4 0.48 2.1 1.2 2.6 2.3 1.6 5.5 0.3 6.9-3.4 1.5-4.2 0.17-8.5-3.5-11-3.7-2.3-8.9-1.3-11 2-2.1 2.8-1.8 5.3-0.22 5.8zm11-2c-0.25-0.93 0.6-1.8 1.5-1.5 0.44 0.11 0.77 0.45 0.89 0.88 0.25 0.93-0.6 1.8-1.5 1.5-0.44-0.12-0.77-0.46-0.89-0.89zm0.5 3.5c-0.35-0.9 0.41-1.8 1.4-1.7 0.53 0.08 0.95 0.5 1 1 0.15 0.95-0.78 1.7-1.7 1.4-0.33-0.13-0.59-0.39-0.72-0.72zm-2.5-6.5c-0.31-0.91 0.48-1.8 1.4-1.6 0.5 0.1 0.9 0.49 0.99 0.99 0.2 0.94-0.7 1.8-1.6 1.4-0.38-0.13-0.67-0.42-0.8-0.8zm-0.02 9c-0.25-0.93 0.61-1.8 1.5-1.5 0.43 0.12 0.77 0.46 0.88 0.89 0.25 0.93-0.6 1.8-1.5 1.5-0.44-0.12-0.77-0.46-0.89-0.89zm-3.5-10c-0.25-0.93 0.6-1.8 1.5-1.5 0.44 0.11 0.77 0.45 0.89 0.88 0.25 0.93-0.6 1.8-1.5 1.5-0.44-0.12-0.77-0.46-0.89-0.89z"/>
 </symbol>
 <symbol id="comment" viewBox="0 0 20 20">
  <path d="m3 3c0.13-1.7 1.5-3 3.2-3h9c2.6 0 4.8 2.1 4.8 4.8v6c0 1.7-1.3 3.1-3 3.2-0.13 1.7-1.6 3-3.2 3h-5.1l-3.7 2.8c-0.82 0.62-2 0.03-2-1v-1.8c-1.7-0.13-3-1.5-3-3.2v-7.5c-0.01-1.7 1.3-3.1 3-3.3zm1.5 0h9.2c1.8 0 3.2 1.4 3.2 3.2v6.2c0.85-0.12 1.5-0.85 1.5-1.7v-6c0-1.8-1.4-3.2-3.2-3.2h-9c-0.88 0-1.6 0.65-1.7 1.5zm-1.3 12h1.2v2.8l3.7-2.8h5.6c0.97 0 1.8-0.79 1.8-1.8v-7.5c0-0.97-0.78-1.8-1.8-1.8h-10c-0.97 0-1.8 0.78-1.8 1.8v7.5c0 0.96 0.78 1.8 1.8 1.8z"/>
 </symbol>
 <symbol id="copy" viewBox="0 0 20 20">
  <path d="m3.5 2.6v13c0 1.8 1.5 3.2 3.2 3.2h8.6c-0.31 0.88-1.2 1.5-2.1 1.5h-6.5c-2.6 0-4.8-2.1-4.8-4.8v-10c0-0.98 0.63-1.8 1.5-2.1zm12-2.6c1.2 0 2.2 1 2.2 2.2v13c0 1.2-1 2.2-2.2 2.2h-9c-1.2 0-2.2-1-2.2-2.2v-13c0-1.2 1-2.2 2.2-2.2h9zm0 1.5h-9c-0.41 0-0.75 0.34-0.75 0.75v13c0 0.41 0.34 0.75 0.75 0.75h9c0.41 0 0.75-0.34 0.75-0.75v-13c0-0.41-0.34-0.75-0.75-0.75z"/>
 </symbol>
 <symbol id="credit-card" viewBox="0 0 20 20">
  <path d="m2.8 3c-1.5 0-2.8 1.2-2.8 2.8v8.5c0 1.5 1.2 2.8 2.8 2.8h14c1.5 0 2.8-1.2 2.8-2.8v-8.5c0-1.5-1.2-2.8-2.8-2.8h-14zm-1.2 11v-5.2h17v5.2c0 0.69-0.56 1.2-1.2 1.2h-14c-0.69 0-1.2-0.56-1.2-1.2zm0-6.8v-1.8c0-0.69 0.56-1.2 1.2-1.2h14c0.69 0 1.2 0.56 1.2 1.2v1.8h-17z"/>
 </symbol>
 <symbol id="crop" viewBox="0 0 20 20">
  <path d="m19 15c0.41 0 0.75 0.34 0.75 0.75 0 0.38-0.28 0.69-0.65 0.74l-0.1 0.01h-2.8v2.8c0 0.41-0.34 0.75-0.75 0.75-0.38 0-0.7-0.28-0.75-0.65v-0.1-2.8h-8.2c-1.7 0-3.2-1.4-3.2-3.1v-0.18-8.2h-2.8c-0.42 0-0.75-0.34-0.75-0.75 0-0.38 0.28-0.69 0.65-0.74l0.1-0.01h2.8v-2.8c0-0.41 0.33-0.75 0.75-0.75 0.38 0 0.69 0.28 0.74 0.65l0.01 0.1v2.8 1.5 8.2c0 0.92 0.71 1.7 1.6 1.7l0.15 0.01h12zm-13-12h7.2c1.7 0 3.2 1.4 3.2 3.1l0.01 0.18v7.2h-1.5v-7.2c0-0.92-0.71-1.7-1.6-1.7l-0.14-0.01h-7.2v-1.5z"/>
 </symbol>
 <symbol id="cut" viewBox="0 0 20 20">
  <path d="m11 8.7 2.4 3.6c0.47-0.19 0.97-0.29 1.5-0.29 2.2 0 4 1.8 4 4s-1.8 4-4 4-4-1.8-4-4c0-1.1 0.48-2.2 1.2-2.9l-2.1-3-2.1 3.3c0.6 0.7 0.96 1.6 0.96 2.6 0 2.2-1.8 4-4 4s-4-1.8-4-4 1.8-4 4-4c0.67 0 1.3 0.17 1.9 0.46l2.4-3.7-5.1-7.6c-0.23-0.34-0.14-0.81 0.2-1s0.81-0.14 1 0.2l4.8 7zm-6.1 9.8c1.4 0 2.5-1.1 2.5-2.5s-1.1-2.5-2.5-2.5-2.5 1.1-2.5 2.5 1.1 2.5 2.5 2.5zm10 0c1.4 0 2.5-1.1 2.5-2.5s-1.1-2.5-2.5-2.5-2.5 1.1-2.5 2.5 1.1 2.5 2.5 2.5zm-4-13 3.6-5.6c0.22-0.35 0.69-0.45 1-0.23 0.35 0.22 0.45 0.69 0.23 1l-3.9 6.2z"/>
 </symbol>
 <symbol id="delete" viewBox="0 0 20 20">
  <path d="m10-0.25c1.7 0 3.2 1.4 3.2 3.1l0.01 0.19h5.2c0.41 0 0.75 0.33 0.75 0.75 0 0.37-0.28 0.69-0.65 0.74l-0.1 0.01h-0.8l-1.3 13c-0.13 1.4-1.2 2.4-2.6 2.5l-0.17 0.01h-7.4c-1.4 0-2.5-0.99-2.7-2.3l-0.02-0.18-1.3-13h-0.8c-0.38 0-0.69-0.29-0.74-0.65l-0.01-0.1c0-0.38 0.28-0.7 0.65-0.75h0.1 5.2c0-1.8 1.5-3.2 3.2-3.2zm6.2 4.8h-12l1.3 13c0.06 0.59 0.53 1.1 1.1 1.1l0.12 0.01h7.4c0.6 0 1.1-0.43 1.2-1l0.02-0.12 1.3-13zm-4.4 2.8c0.38 0 0.69 0.28 0.74 0.64l0.01 0.11v7c0 0.41-0.34 0.75-0.75 0.75-0.38 0-0.69-0.29-0.74-0.65l-0.01-0.1v-7c0-0.42 0.34-0.75 0.75-0.75zm-3.5 0c0.38 0 0.69 0.28 0.74 0.64l0.01 0.11v7c0 0.41-0.34 0.75-0.75 0.75-0.38 0-0.69-0.29-0.74-0.65l-0.01-0.1v-7c0-0.42 0.34-0.75 0.75-0.75zm1.8-6c-0.92 0-1.7 0.7-1.7 1.6l-0.01 0.15h3.5c0-0.97-0.78-1.8-1.8-1.8z"/>
 </symbol>
 <symbol id="earth" viewBox="0 0 20 20">
  <path d="m9 0.05c0.35-0.03 0.7-0.05 1-0.05 5.5 0 10 4.5 10 10s-4.5 10-10 10c-3.2 0-6.1-1.5-7.9-3.9-1.3-1.7-2.1-3.8-2.1-6.1 0-5.2 3.9-9.4 8.9-9.9l0.02-0.01zm1 1.4h-0.16c0.12 0.25 0.25 0.53 0.37 0.85 0.35 0.92 0.67 2.3 0.1 3.5-0.52 1.1-1.4 1.4-2.1 1.6l-0.08 0.02c-0.66 0.17-0.91 0.24-1.1 0.52-0.17 0.25-0.15 0.58 0.06 1.2 0.01 0.04 0.03 0.09 0.04 0.14 0.09 0.26 0.18 0.57 0.23 0.87 0.07 0.36 0.09 0.82-0.15 1.3-0.23 0.45-0.54 0.75-0.9 0.95-0.34 0.18-0.69 0.25-0.96 0.3l-0.09 0.02c-0.51 0.09-0.76 0.13-1 0.39-0.19 0.2-0.31 0.55-0.38 1.1-0.03 0.22-0.04 0.43-0.06 0.65l-0.01 0.12c-0.02 0.24-0.04 0.52-0.1 0.76 1.6 1.7 3.8 2.8 6.3 2.8 1.6 0 3-0.43 4.3-1.2-0.1-0.1-0.21-0.22-0.31-0.35-0.34-0.43-0.79-1.2-0.63-2 0.07-0.42 0.3-0.77 0.51-1 0.22-0.27 0.49-0.52 0.72-0.74 0.06-0.05 0.11-0.1 0.16-0.14 0.18-0.17 0.33-0.3 0.46-0.44 0.17-0.18 0.21-0.26 0.21-0.27 0.07-0.22-0.01-0.38-0.1-0.45-0.05-0.04-0.11-0.06-0.19-0.06-0.09 0-0.22 0.02-0.4 0.14-0.21 0.13-0.52 0.21-0.84 0.08-0.27-0.1-0.41-0.31-0.49-0.43-0.14-0.24-0.22-0.54-0.27-0.77-0.04-0.18-0.08-0.37-0.12-0.55-0.01-0.08-0.03-0.15-0.04-0.21-0.05-0.25-0.09-0.43-0.13-0.54 0 0-0.01-0.01-0.02-0.04-0.02-0.02-0.04-0.06-0.07-0.1-0.05-0.09-0.13-0.19-0.22-0.32-0.04-0.04-0.07-0.09-0.11-0.14-0.16-0.21-0.36-0.47-0.52-0.71-0.19-0.3-0.42-0.69-0.49-1.1-0.03-0.22-0.03-0.47 0.06-0.73 0.09-0.27 0.26-0.48 0.49-0.65 0.48-0.36 1.2-1.2 1.8-2 0.29-0.36 0.54-0.7 0.73-0.95-1.3-0.83-2.9-1.3-4.5-1.3zm5.7 2.2c-0.2 0.26-0.46 0.61-0.76 0.98-0.6 0.75-1.4 1.7-2 2.2 0.03 0.09 0.1 0.26 0.26 0.49 0.13 0.2 0.28 0.4 0.43 0.61 0.05 0.05 0.09 0.11 0.13 0.17 0.18 0.23 0.41 0.54 0.52 0.84 0.09 0.23 0.15 0.52 0.2 0.76 0.02 0.09 0.04 0.17 0.05 0.25 0.03 0.13 0.05 0.25 0.08 0.37 0.6-0.17 1.2-0.07 1.7 0.29 0.6 0.47 0.86 1.3 0.62 2.1-0.11 0.36-0.36 0.66-0.56 0.87-0.17 0.17-0.38 0.36-0.56 0.53-0.04 0.04-0.09 0.08-0.13 0.12-0.23 0.21-0.42 0.4-0.57 0.57-0.15 0.19-0.19 0.3-0.2 0.36-0.04 0.22 0.06 0.51 0.32 0.84 0.12 0.15 0.25 0.27 0.35 0.36l0.03 0.03c1.8-1.6 2.9-3.9 2.9-6.4 0-2.5-1.1-4.7-2.8-6.3zm-14 6.3c0 1.4 0.34 2.7 0.94 3.9 0.08-0.56 0.26-1.2 0.74-1.8 0.6-0.64 1.3-0.76 1.8-0.84 0.05 0 0.09-0.01 0.13-0.02 0.25-0.04 0.39-0.08 0.5-0.14 0.09-0.05 0.19-0.13 0.29-0.32 0.02-0.03 0.04-0.11 0.01-0.33-0.04-0.18-0.1-0.38-0.18-0.63-0.02-0.06-0.04-0.13-0.06-0.19-0.18-0.61-0.48-1.6 0.12-2.5 0.53-0.79 1.4-0.99 1.9-1.1 0.06-0.02 0.11-0.03 0.16-0.04 0.56-0.15 0.88-0.28 1.1-0.76 0.29-0.63 0.16-1.5-0.15-2.3-0.15-0.4-0.32-0.74-0.46-0.99-0.05-0.08-0.08-0.15-0.12-0.21-3.8 0.82-6.7 4.2-6.7 8.3z"/>
 </symbol>
 <symbol id="edit" viewBox="0 0 20 20">
  <path d="m19 1c1.4 1.4 1.4 3.7 0 5.1l-12 12c-0.27 0.27-0.62 0.47-1 0.58l-5.1 1.4c-0.56 0.16-1.1-0.36-0.92-0.92l1.4-5.1c0.11-0.38 0.31-0.73 0.58-1l12-12c1.4-1.4 3.7-1.4 5.1 0zm-6 3.1-9.9 9.9c-0.09 0.09-0.16 0.2-0.19 0.33l-1 3.8 3.8-1c0.13-0.03 0.24-0.1 0.33-0.19l9.9-9.9-2.9-2.9zm2-2-0.97 0.97 2.9 2.9 0.97-0.97c0.81-0.81 0.81-2.1 0-2.9s-2.1-0.81-2.9 0z"/>
 </symbol>
 <symbol id="flag" viewBox="0 0 20 20">
  <path d="m0.99 1.8c0-0.41 0.34-0.75 0.75-0.75h17c0.62 0 0.97 0.71 0.6 1.2l-4.2 5.6 4.2 5.6c0.37 0.5 0.02 1.2-0.6 1.2h-16v4.8c0 0.38-0.28 0.7-0.64 0.75h-0.11c-0.38 0-0.69-0.28-0.74-0.65l-0.01-0.1v-18zm16 0.75h-14v10h14l-3.6-4.8c-0.2-0.27-0.2-0.63 0-0.9l3.6-4.8z"/>
 </symbol>
 <symbol id="folder" viewBox="0 0 20 20">
  <path d="m6.2 2c0.46 0 0.91 0.14 1.3 0.4l0.16 0.12 2.4 2h7.7c1.1 0 2.1 0.84 2.2 1.9l0.01 0.16 0.01 0.15v9c0 1.2-0.93 2.2-2.1 2.2l-0.15 0.01h-16c-1.2 0-2.2-0.93-2.2-2.1l-0.01-0.15v-12c0-1.2 0.93-2.2 2.1-2.2l0.15-0.01h4zm1.4 6c-0.36 0.29-0.79 0.47-1.2 0.51l-0.19 0.01h-4.7v7.2c0 0.38 0.28 0.69 0.65 0.74l0.1 0.01h16c0.38 0 0.69-0.28 0.74-0.65l0.01-0.1v-9c0-0.38-0.28-0.69-0.65-0.74l-0.1-0.01h-7.7l-2.4 2zm-1.4-4.5h-4c-0.38 0-0.69 0.28-0.74 0.65l-0.01 0.1v2.8h4.7c0.14 0 0.27-0.04 0.39-0.11l0.09-0.06 1.9-1.6-1.9-1.6c-0.11-0.09-0.24-0.14-0.38-0.16l-0.1-0.01z"/>
 </symbol>
 <symbol id="help" viewBox="0 0 20 20">
  <path d="m10 0c5.5 0 10 4.5 10 10s-4.5 10-10 10-10-4.5-10-10 4.5-10 10-10zm0 1.7c-4.6 0-8.3 3.7-8.3 8.3 0 4.6 3.7 8.3 8.3 8.3 4.6 0 8.3-3.7 8.3-8.3 0-4.6-3.7-8.3-8.3-8.3zm0 12c0.55 0 1 0.45 1 1s-0.45 1-1 1-1-0.45-1-1 0.45-1 1-1zm0-8.8c1.5 0 2.8 1.2 2.8 2.8 0 1-0.3 1.6-1 2.4l-0.17 0.17c-0.62 0.62-0.78 0.89-0.78 1.5 0 0.41-0.34 0.75-0.75 0.75s-0.75-0.34-0.75-0.75c0-1 0.3-1.6 1-2.4l0.17-0.17c0.62-0.62 0.78-0.89 0.78-1.5 0-0.69-0.56-1.2-1.2-1.2-0.65 0-1.2 0.49-1.2 1.1l-0.01 0.13c0 0.41-0.34 0.75-0.75 0.75s-0.75-0.34-0.75-0.75c0-1.5 1.2-2.8 2.8-2.8z"/>
 </symbol>
 <symbol id="history-redo" viewBox="0 0 20 20">
  <path d="m17 0c-0.38 0-0.7 0.28-0.75 0.65v0.1 5.7l-4.6-4.6c-2.4-2.4-6.4-2.5-8.9-0.18l-0.19 0.18c-2.5 2.5-2.5 6.6 0 9.1l8.8 8.8c0.3 0.29 0.77 0.29 1.1 0 0.29-0.29 0.29-0.77-0.01-1.1l-8.8-8.8c-1.9-1.9-1.9-5 0-6.9 1.9-1.9 4.8-1.9 6.8-0.17l4.8 4.7h-5.7c-0.38 0-0.7 0.28-0.75 0.65v0.1c0 0.38 0.28 0.69 0.65 0.74l0.1 0.01h7.5c0.38 0 0.69-0.28 0.74-0.65l0.01-0.1v-7.5c0-0.42-0.34-0.75-0.75-0.75z"/>
 </symbol>
 <symbol id="history-undo" viewBox="0 0 20 20">
  <path d="m2.7 0c0.38 0 0.7 0.28 0.75 0.65v0.1 5.7l4.6-4.6c2.4-2.4 6.4-2.5 8.9-0.18l0.19 0.18c2.5 2.5 2.5 6.6 0 9.1l-8.8 8.8c-0.3 0.29-0.77 0.29-1.1 0-0.29-0.29-0.29-0.77 0.01-1.1l8.8-8.8c1.9-1.9 1.9-5 0-6.9-1.9-1.9-4.8-1.9-6.8-0.17l-4.8 4.7h5.7c0.38 0 0.7 0.28 0.75 0.65v0.1c0 0.38-0.28 0.69-0.65 0.74l-0.1 0.01h-7.5c-0.38 0-0.69-0.28-0.74-0.65l-0.01-0.1v-7.5c0-0.42 0.34-0.75 0.75-0.75z"/>
 </symbol>
 <symbol id="home" viewBox="0 0 20 20">
  <path d="m8.6 0.53c0.84-0.7 2.1-0.7 2.9 0l6.8 5.7c0.51 0.43 0.8 1.1 0.8 1.7v9.8c0 0.96-0.78 1.8-1.8 1.8h-3.5c-0.97 0-1.8-0.79-1.8-1.8v-5.5c0-0.14-0.11-0.25-0.25-0.25h-3.5c-0.14 0-0.25 0.11-0.25 0.25v5.5c0 0.96-0.78 1.8-1.8 1.8h-3.5c-0.97 0-1.8-0.79-1.8-1.8v-9.8c0-0.66 0.29-1.3 0.8-1.7l6.8-5.7zm1.9 1.2c-0.28-0.24-0.68-0.24-0.96 0l-6.8 5.7c-0.17 0.14-0.27 0.35-0.27 0.57v9.8c0 0.14 0.11 0.25 0.25 0.25h3.5c0.14 0 0.25-0.11 0.25-0.25v-5.5c0-0.97 0.78-1.8 1.8-1.8h3.5c0.97 0 1.8 0.78 1.8 1.8v5.5c0 0.14 0.11 0.25 0.25 0.25h3.5c0.14 0 0.25-0.11 0.25-0.25v-9.8c0-0.22-0.1-0.43-0.27-0.57l-6.8-5.7z"/>
 </symbol>
 <symbol id="image" viewBox="0 0 20 20">
  <path d="m16 1c1.8 0 3.2 1.5 3.2 3.2v12c0 1.8-1.5 3.2-3.2 3.2h-12c-1.8 0-3.2-1.5-3.2-3.2v-12c0-1.8 1.5-3.2 3.2-3.2h12zm0.58 16-5.8-5.7c-0.26-0.25-0.67-0.28-0.96-0.07l-0.08 0.07-5.8 5.7c0.18 0.07 0.38 0.1 0.58 0.1h12c0.2 0 0.4-0.03 0.58-0.1l-5.8-5.7 5.8 5.7zm-0.58-15h-12c-0.97 0-1.8 0.78-1.8 1.8v12c0 0.21 0.04 0.41 0.1 0.59l5.8-5.7c0.83-0.81 2.1-0.85 3-0.11l0.12 0.11 5.8 5.7c0.06-0.18 0.1-0.38 0.1-0.59v-12c0-0.97-0.78-1.8-1.8-1.8zm-2.5 2c1.2 0 2.2 1 2.2 2.2 0 1.2-1 2.2-2.2 2.2-1.2 0-2.2-1-2.2-2.2 0-1.2 1-2.2 2.2-2.2zm0 1.5c-0.41 0-0.75 0.34-0.75 0.75 0 0.42 0.34 0.75 0.75 0.75 0.42 0 0.75-0.33 0.75-0.75 0-0.41-0.33-0.75-0.75-0.75z"/>
 </symbol>
 <symbol id="info" viewBox="0 0 20 20">
  <path d="m10 0c5.5 0 10 4.5 10 10s-4.5 10-10 10-10-4.5-10-10 4.5-10 10-10zm0 1.5c-4.7 0-8.5 3.8-8.5 8.5s3.8 8.5 8.5 8.5 8.5-3.8 8.5-8.5-3.8-8.5-8.5-8.5zm0 7c0.38 0 0.69 0.28 0.74 0.65l0.01 0.1v5.5c0 0.41-0.33 0.75-0.75 0.75-0.38 0-0.69-0.28-0.74-0.65l-0.01-0.1v-5.5c0-0.41 0.33-0.75 0.75-0.75zm0-3.5c0.55 0 1 0.45 1 1s-0.45 1-1 1-1-0.45-1-1 0.45-1 1-1z"/>
 </symbol>
 <symbol id="link" viewBox="0 0 20 20">
  <path d="m7.2 5c0.41 0 0.75 0.34 0.75 0.75 0 0.38-0.28 0.69-0.64 0.74l-0.11 0.01h-2.2c-1.9 0-3.5 1.6-3.5 3.5 0 1.9 1.5 3.4 3.3 3.5l0.21 0.01h2.2c0.41 0 0.75 0.34 0.75 0.75 0 0.38-0.28 0.69-0.64 0.74l-0.11 0.01h-2.2c-2.8 0-5-2.2-5-5 0-2.7 2.1-4.9 4.8-5l0.25-0.01h2.2zm7.8 0c2.8 0 5 2.2 5 5 0 2.7-2.1 4.9-4.8 5l-0.25 0.01h-2.2c-0.41 0-0.75-0.34-0.75-0.75 0-0.38 0.28-0.69 0.64-0.74l0.11-0.01h2.2c1.9 0 3.5-1.6 3.5-3.5 0-1.9-1.5-3.4-3.3-3.5l-0.21-0.01h-2.2c-0.41 0-0.75-0.34-0.75-0.75 0-0.38 0.28-0.69 0.64-0.74l0.11-0.01h2.2zm-10 4.2h10c0.41 0 0.75 0.34 0.75 0.75 0 0.38-0.28 0.69-0.65 0.74l-0.1 0.01h-10c-0.41 0-0.75-0.34-0.75-0.75 0-0.38 0.28-0.69 0.65-0.74l0.1-0.01h10-10z"/>
 </symbol>
 <symbol id="lock" viewBox="0 0 20 20">
  <path d="m10 0c2.2 0 4 1.8 4 4v2h1.8c1.2 0 2.2 1 2.2 2.2v9.5c0 1.2-1 2.2-2.2 2.2h-12c-1.2 0-2.2-1-2.2-2.2v-9.5c0-1.2 1-2.2 2.2-2.2h1.8v-2c0-2.2 1.8-4 4-4zm5.8 7.5h-12c-0.41 0-0.75 0.34-0.75 0.75v9.5c0 0.41 0.34 0.75 0.75 0.75h12c0.41 0 0.75-0.34 0.75-0.75v-9.5c0-0.41-0.34-0.75-0.75-0.75zm-5.8 4c0.83 0 1.5 0.67 1.5 1.5s-0.67 1.5-1.5 1.5-1.5-0.67-1.5-1.5 0.67-1.5 1.5-1.5zm0-10c-1.4 0-2.5 1.1-2.5 2.5v2h5v-2c0-1.4-1.1-2.5-2.5-2.5z"/>
 </symbol>
 <symbol id="logout" viewBox="0 0 20 20">
  <path d="m2.2 14c-0.41 0-0.75 0.33-0.75 0.75v0.58c0 0.53 0.19 1 0.54 1.5 1.2 1.5 3.2 2.2 6 2.2 0.59 0 1.2-0.03 1.7-0.11 0.24 0.5 0.55 0.96 0.91 1.4-0.8 0.16-1.7 0.24-2.6 0.24-3.2 0-5.5-0.9-7.1-2.7-0.58-0.68-0.9-1.5-0.9-2.4v-0.58c0-1.2 1-2.2 2.2-2.2h7.8c-0.3 0.46-0.54 0.97-0.71 1.5zm5.8-14c2.8 0 5 2.2 5 5 0 2.8-2.2 5-5 5s-5-2.2-5-5c0-2.8 2.2-5 5-5zm0 1.5c-1.9 0-3.5 1.6-3.5 3.5 0 1.9 1.6 3.5 3.5 3.5 1.9 0 3.5-1.6 3.5-3.5 0-1.9-1.6-3.5-3.5-3.5zm13 14c0 3-2.5 5.5-5.5 5.5-3 0-5.5-2.5-5.5-5.5s2.5-5.5 5.5-5.5c3 0 5.5 2.5 5.5 5.5zm-4.6-2.8c-0.2-0.2-0.51-0.2-0.71 0-0.19 0.19-0.19 0.51 0 0.7l1.6 1.6h-4.3c-0.28 0-0.5 0.22-0.5 0.5s0.22 0.5 0.5 0.5h4.3l-1.6 1.6c-0.19 0.19-0.19 0.51 0 0.7 0.2 0.2 0.51 0.2 0.71 0l2.5-2.5c0.05-0.05 0.09-0.11 0.12-0.18 0.01-0.05 0.03-0.1 0.03-0.16v-0.01c0-0.08-0.02-0.15-0.05-0.22l-0.06-0.09c-0.01-0.02-0.03-0.03-0.04-0.05z"/>
 </symbol>
 <symbol id="mail" viewBox="0 0 20 20">
  <path d="m3.2 2h14c1.7 0 3.2 1.4 3.2 3.1l0.01 0.18v9.5c0 1.7-1.4 3.2-3.1 3.2l-0.18 0.01h-14c-1.7 0-3.2-1.4-3.2-3.1l-0.01-0.18v-9.5c0-1.7 1.4-3.2 3.1-3.2l0.18-0.01h14-14zm15 5.4-8.2 4.3c-0.19 0.1-0.41 0.12-0.6 0.05l-0.1-0.05-8.2-4.3v7.4c0 0.92 0.71 1.7 1.6 1.7l0.14 0.01h14c0.92 0 1.7-0.71 1.7-1.6l0.01-0.14v-7.4zm-1.8-3.9h-14c-0.92 0-1.7 0.71-1.7 1.6l-0.01 0.14v0.43l8.5 4.5 8.5-4.5v-0.43c0-0.92-0.71-1.7-1.6-1.7l-0.14-0.01z"/>
 </symbol>
 <symbol id="menu" viewBox="0 0 20 20">
  <path d="m0.75 16h18c0.42 0 0.75 0.33 0.75 0.75 0 0.38-0.28 0.69-0.65 0.74l-0.1 0.01h-18c-0.41 0-0.75-0.34-0.75-0.75 0-0.38 0.28-0.7 0.65-0.75h0.1 18-18zm0-6.5h18c0.42 0 0.75 0.34 0.75 0.75 0 0.38-0.28 0.69-0.65 0.74l-0.1 0.01h-18c-0.41 0-0.75-0.34-0.75-0.75 0-0.38 0.28-0.69 0.65-0.74l0.1-0.01h18-18zm0-6.5h18c0.41 0 0.75 0.34 0.75 0.75 0 0.38-0.28 0.69-0.65 0.74l-0.1 0.01h-18c-0.41 0-0.75-0.34-0.75-0.75 0-0.38 0.28-0.69 0.65-0.74l0.1-0.01h18-18z"/>
 </symbol>
 <symbol id="note" viewBox="0 0 20 20">
  <path d="m16 1c1.8 0 3.2 1.5 3.2 3.2v6.9c0 0.6-0.24 1.2-0.66 1.6l-5.6 5.6c-0.42 0.42-0.99 0.66-1.6 0.66h-6.9c-1.8 0-3.2-1.5-3.2-3.2v-12c0-1.8 1.5-3.2 3.2-3.2h12zm0 1.5h-12c-0.97 0-1.8 0.78-1.8 1.8v12c0 0.97 0.78 1.8 1.8 1.8h6.8v-3.2c0-1.7 1.4-3.2 3.1-3.2l0.18-0.01h3.2v-6.8c0-0.97-0.78-1.8-1.8-1.8zm0.69 10h-2.2c-0.92 0-1.7 0.71-1.7 1.6l-0.01 0.14v2.2l3.9-3.9z"/>
 </symbol>
 <symbol id="open" viewBox="0 0 20 20">
  <path d="m5.2 2.5h3.5c0.41 0 0.75 0.34 0.75 0.75 0 0.38-0.28 0.69-0.65 0.74l-0.1 0.01h-3.5c-1.2 0-2.2 0.91-2.2 2.1l-0.01 0.16v8.5c0 1.2 0.93 2.2 2.1 2.2l0.15 0.01 8.5-0.01c1.2 0 2.2-0.93 2.2-2.1l0.01-0.15v-3.5c0-0.41 0.33-0.75 0.75-0.75 0.38 0 0.69 0.28 0.74 0.65l0.01 0.1v3.5c0 2-1.6 3.6-3.6 3.7l-0.2 0.01-8.5 0.01-0.21-0.01c-1.9-0.1-3.4-1.6-3.5-3.5l-0.01-0.2v-8.5-0.2c0.11-1.9 1.6-3.4 3.6-3.6h0.2 3.5-3.5zm6.5-1.5h6.6l0.1 0.01 0.1 0.03 0.06 0.03c0.05 0.02 0.1 0.05 0.15 0.09l0.07 0.06 0.08 0.1 0.06 0.09 0.04 0.09 0.02 0.06 0.01 0.07 0.01 0.09v6.5c0 0.42-0.34 0.75-0.75 0.75-0.38 0-0.69-0.28-0.74-0.64l-0.01-0.11v-4.7l-7.2 7.2c-0.27 0.27-0.68 0.29-0.98 0.08l-0.08-0.08c-0.27-0.26-0.29-0.68-0.07-0.97l0.07-0.09 7.2-7.2h-4.7c-0.38 0-0.7-0.28-0.75-0.65v-0.1c0-0.38 0.28-0.69 0.65-0.74l0.1-0.01z"/>
 </symbol>
 <symbol id="paste" viewBox="0 0 20 20">
  <path d="m11 0c1.2 0 2.1 0.87 2.2 2h1.8c1.2 0 2.2 0.92 2.2 2.1l0.01 0.16c0 0.38-0.28 0.69-0.65 0.74l-0.1 0.01c-0.38 0-0.69-0.29-0.74-0.65l-0.01-0.1c0-0.38-0.28-0.7-0.65-0.75h-0.1-2.1c-0.41 0.6-1.1 0.99-1.9 0.99h-3.5c-0.78 0-1.5-0.39-1.9-0.99h-2.1c-0.38 0-0.69 0.28-0.74 0.65l-0.01 0.1v14c0 0.38 0.28 0.7 0.65 0.75h0.1 3c0.38 0 0.69 0.28 0.74 0.65l0.01 0.1c0 0.42-0.34 0.75-0.75 0.75h-3c-1.2 0-2.2-0.92-2.2-2.1l-0.01-0.16v-14c0-1.2 0.93-2.2 2.1-2.2h0.15 1.8c0.13-1.1 1.1-2 2.2-2h3.5zm6 6c1.2 0 2.2 0.92 2.2 2.1l0.01 0.16v9.5c0 1.2-0.93 2.2-2.1 2.2l-0.15 0.01h-6.5c-1.2 0-2.2-0.93-2.2-2.1l-0.01-0.15v-9.5c0-1.2 0.93-2.2 2.1-2.2h0.15 6.5zm0 1.5h-6.5c-0.38 0-0.69 0.28-0.74 0.65l-0.01 0.1v9.5c0 0.38 0.28 0.69 0.65 0.74l0.1 0.01h6.5c0.38 0 0.69-0.28 0.74-0.65l0.01-0.1v-9.5c0-0.38-0.28-0.7-0.65-0.75h-0.1zm-6-6h-3.5c-0.42 0-0.75 0.33-0.75 0.74 0 0.42 0.33 0.75 0.75 0.75h3.5c0.42 0 0.75-0.33 0.75-0.75 0-0.41-0.33-0.74-0.75-0.74z"/>
 </symbol>
 <symbol id="person" viewBox="0 0 20 20">
  <path d="m16 12c1.2 0 2.2 1 2.2 2.2v0.57c0 0.9-0.32 1.8-0.9 2.4-1.6 1.8-4 2.7-7.1 2.7-3.2 0-5.5-0.91-7.1-2.7-0.58-0.68-0.9-1.5-0.9-2.4v-0.57c0-1.2 1-2.2 2.2-2.2h12zm0 1.5h-12c-0.41 0-0.75 0.33-0.75 0.75v0.57c0 0.54 0.19 1.1 0.54 1.5 1.2 1.5 3.2 2.2 6 2.2 2.7 0 4.7-0.75 6-2.2 0.35-0.4 0.54-0.92 0.54-1.5v-0.57c0-0.42-0.34-0.75-0.75-0.75zm-5.8-14c2.8 0 5 2.2 5 5s-2.2 5-5 5-5-2.2-5-5 2.2-5 5-5zm0 1.5c-1.9 0-3.5 1.6-3.5 3.5s1.6 3.5 3.5 3.5c1.9 0 3.5-1.6 3.5-3.5s-1.6-3.5-3.5-3.5z"/>
 </symbol>
 <symbol id="pin" viewBox="0 0 20 20">
  <path d="m14 0.93 4.8 4.8c1.3 1.3 0.96 3.6-0.72 4.4l-4.9 2.4c-0.17 0.08-0.31 0.24-0.37 0.42l-1.4 4.2c-0.3 0.87-1.4 1.1-2.1 0.48l-3.1-3.1-4.4 4.4h-1.1v-1.1l4.4-4.4-3.1-3.1c-0.65-0.66-0.39-1.8 0.48-2.1l4.2-1.4c0.18-0.06 0.34-0.2 0.42-0.37l2.4-4.9c0.84-1.7 3.1-2 4.4-0.72zm3.8 5.9-4.8-4.8c-0.6-0.6-1.6-0.44-2 0.33l-2.4 4.9c-0.26 0.52-0.72 0.93-1.3 1.1l-3.8 1.3 6.7 6.7 1.3-3.8c0.19-0.55 0.6-1 1.1-1.3l4.9-2.4c0.77-0.38 0.93-1.4 0.33-2z"/>
 </symbol>
 <symbol id="question" viewBox="0 0 20 20">
  <path d="m9 18c0-0.55 0.45-1 1-1s1 0.45 1 1-0.45 1-1 1-1-0.45-1-1zm6-11c0 1.2-0.31 2-0.8 2.7-0.47 0.68-1.1 1.2-1.6 1.6l-0.04 0.04c-1.1 0.82-1.8 1.4-1.8 2.7v0.25c0 0.41-0.34 0.75-0.75 0.75s-0.75-0.34-0.75-0.75v-0.25c0-2.1 1.3-3 2.3-3.8 0.05-0.04 0.09-0.07 0.14-0.11 0.53-0.41 0.98-0.77 1.3-1.2 0.31-0.44 0.53-1 0.53-1.9 0-1.9-1.6-3.5-3.5-3.5s-3.5 1.6-3.5 3.5c0 0.41-0.34 0.75-0.75 0.75s-0.75-0.34-0.75-0.75c0-2.8 2.2-5 5-5s5 2.2 5 5z"/>
 </symbol>
 <symbol id="refresh" viewBox="0 0 20 20">
  <path d="m10 2.5c-4.1 0-7.5 3.4-7.5 7.5s3.4 7.5 7.5 7.5 7.5-3.4 7.5-7.5c0-0.38-0.03-0.75-0.08-1.1-0.07-0.45 0.26-0.89 0.72-0.89 0.37 0 0.7 0.26 0.76 0.62 0.06 0.45 0.1 0.91 0.1 1.4 0 5-4 9-9 9s-9-4-9-9 4-9 9-9c2.3 0 4.4 0.87 6 2.3v-1c0-0.41 0.34-0.75 0.75-0.75s0.75 0.34 0.75 0.75v3c0 0.41-0.34 0.75-0.75 0.75h-3c-0.41 0-0.75-0.34-0.75-0.75s0.34-0.75 0.75-0.75h1.4c-1.3-1.2-3.1-2-5.1-2z"/>
 </symbol>
 <symbol id="remove" viewBox="0 0 20 20">
  <path d="m1.9 9.2h16c0.58-0.03 0.98 0.57 0.72 1.1-0.11 0.24-0.35 0.4-0.62 0.41h-16c-0.58 0.04-0.98-0.56-0.72-1.1 0.11-0.24 0.35-0.4 0.62-0.42z"/>
 </symbol>
 <symbol id="search" viewBox="0 0 20 20">
  <path d="m8.2 1c4 0 7.2 3.2 7.2 7.2 0 1.7-0.61 3.3-1.6 4.6l4.9 4.9c0.29 0.29 0.29 0.77 0 1.1-0.27 0.27-0.68 0.29-0.98 0.07l-0.08-0.07-4.9-4.9c-1.2 1-2.8 1.6-4.6 1.6-4 0-7.2-3.2-7.2-7.2s3.2-7.2 7.2-7.2zm0 1.5c-3.2 0-5.8 2.6-5.8 5.8s2.6 5.8 5.8 5.8 5.8-2.6 5.8-5.8-2.6-5.8-5.8-5.8z"/>
 </symbol>
 <symbol id="send" viewBox="0 0 20 20">
  <path d="m3.7 10-3.4-8.7c-0.23-0.61 0.36-1.2 0.94-0.98l0.1 0.04 18 9c0.51 0.26 0.55 0.97 0.09 1.3l-0.09 0.06-18 9c-0.59 0.29-1.2-0.24-1.1-0.85l0.03-0.09 3.4-8.7-3.4-8.7 3.4 8.7zm-1.3-7.5 2.6 6.7h6.6c0.38 0 0.69 0.28 0.74 0.65l0.01 0.1c0 0.38-0.28 0.69-0.65 0.74l-0.1 0.01h-6.6l-2.6 6.7 15-7.5-15-7.5z"/>
 </symbol>
 <symbol id="settings" viewBox="0 0 20 20">
  <path d="m10 0.25c0.73 0.01 1.5 0.09 2.2 0.25 0.31 0.07 0.55 0.33 0.58 0.65l0.17 1.5c0.08 0.7 0.67 1.2 1.4 1.2 0.19 0 0.38-0.04 0.55-0.12l1.4-0.61c0.29-0.13 0.63-0.06 0.85 0.17 1 1.1 1.8 2.4 2.2 3.8 0.09 0.3-0.02 0.63-0.28 0.82l-1.2 0.92c-0.35 0.26-0.56 0.67-0.56 1.1s0.21 0.85 0.56 1.1l1.2 0.92c0.25 0.19 0.36 0.52 0.27 0.82-0.44 1.4-1.2 2.7-2.2 3.8-0.21 0.23-0.55 0.3-0.84 0.17l-1.4-0.62c-0.4-0.17-0.86-0.15-1.2 0.07-0.39 0.22-0.64 0.61-0.69 1l-0.17 1.5c-0.03 0.32-0.26 0.58-0.57 0.65-1.4 0.35-3 0.35-4.4 0-0.31-0.07-0.54-0.33-0.58-0.65l-0.16-1.5c-0.05-0.44-0.31-0.82-0.69-1s-0.84-0.25-1.2-0.07l-1.4 0.62c-0.29 0.12-0.63 0.05-0.84-0.18-1-1.1-1.8-2.4-2.2-3.8-0.09-0.3 0.02-0.63 0.27-0.82l1.2-0.92c0.35-0.26 0.56-0.67 0.56-1.1s-0.21-0.85-0.56-1.1l-1.2-0.92c-0.25-0.19-0.36-0.52-0.27-0.82 0.44-1.4 1.2-2.7 2.2-3.8 0.21-0.23 0.55-0.3 0.85-0.17l1.4 0.62c0.4 0.17 0.86 0.15 1.2-0.08 0.38-0.22 0.64-0.61 0.69-1l0.17-1.5c0.03-0.32 0.27-0.58 0.58-0.65 0.72-0.16 1.4-0.24 2.2-0.25zm0 1.5c-0.45 0.01-0.91 0.04-1.4 0.12l-0.11 0.97c-0.1 0.91-0.63 1.7-1.4 2.2-0.8 0.46-1.8 0.52-2.6 0.15l-0.9-0.4c-0.57 0.7-1 1.5-1.3 2.3l0.79 0.59c0.74 0.54 1.2 1.4 1.2 2.3s-0.44 1.8-1.2 2.3l-0.8 0.59c0.32 0.84 0.77 1.6 1.3 2.3l0.91-0.39c0.84-0.37 1.8-0.32 2.6 0.14s1.3 1.3 1.4 2.2l0.11 0.99c0.89 0.15 1.8 0.15 2.7 0l0.11-0.99c0.1-0.91 0.63-1.7 1.4-2.2 0.8-0.46 1.8-0.52 2.6-0.15l0.91 0.4c0.57-0.7 1-1.5 1.3-2.3l-0.79-0.59c-0.74-0.54-1.2-1.4-1.2-2.3s0.44-1.8 1.2-2.3l0.8-0.59c-0.32-0.84-0.77-1.6-1.4-2.3l-0.89 0.4c-0.37 0.16-0.76 0.24-1.2 0.24-1.5 0-2.7-1.1-2.9-2.6l-0.11-0.97c-0.44-0.08-0.89-0.11-1.3-0.12zm-0.01 4.5c2.1 0 3.8 1.7 3.8 3.8s-1.7 3.8-3.8 3.8-3.8-1.7-3.8-3.8 1.7-3.8 3.8-3.8zm0 1.5c-1.2 0-2.2 1-2.2 2.2s1 2.2 2.2 2.2 2.2-1 2.2-2.2-1-2.2-2.2-2.2z"/>
 </symbol>
 <symbol id="sort" viewBox="0 0 20 20">
  <path d="m1.7 4.2h16c0.58-0.03 0.98 0.57 0.72 1.1-0.11 0.24-0.35 0.4-0.62 0.41h-16c-0.58 0.04-0.98-0.56-0.72-1.1 0.11-0.24 0.35-0.4 0.62-0.42zm0 5h10c0.58-0.03 0.98 0.57 0.72 1.1-0.11 0.24-0.35 0.4-0.62 0.41h-10c-0.58 0.04-0.98-0.56-0.72-1.1 0.11-0.24 0.35-0.4 0.62-0.42zm0 5h4.5c0.58-0.03 0.98 0.57 0.72 1.1-0.11 0.24-0.35 0.4-0.62 0.41h-4.5c-0.58 0.04-0.98-0.56-0.72-1.1 0.11-0.24 0.35-0.4 0.62-0.42z"/>
 </symbol>
 <symbol id="toggle-off" viewBox="0 0 20 20">
  <path d="m5.2 12c-1.4 0-2.5-1.1-2.5-2.5s1.1-2.5 2.5-2.5 2.5 1.1 2.5 2.5-1.1 2.5-2.5 2.5zm9.8 2.5h-10c-2.8 0-5-2.2-5-5s2.2-5 5-5h10c2.8 0 5 2.2 5 5s-2.2 5-5 5zm-10-8.5c-1.9 0-3.5 1.6-3.5 3.5s1.6 3.5 3.5 3.5h10c1.9 0 3.5-1.6 3.5-3.5s-1.6-3.5-3.5-3.5z"/>
 </symbol>
 <symbol id="toggle-on" viewBox="0 0 20 20">
  <path d="m15 12c1.4 0 2.5-1.1 2.5-2.5s-1.1-2.5-2.5-2.5-2.5 1.1-2.5 2.5 1.1 2.5 2.5 2.5zm-9.8 2.5h10c2.8 0 5-2.2 5-5s-2.2-5-5-5h-10c-2.8 0-5 2.2-5 5s2.2 5 5 5zm10-8.5c1.9 0 3.5 1.6 3.5 3.5s-1.6 3.5-3.5 3.5h-10c-1.9 0-3.5-1.6-3.5-3.5s1.6-3.5 3.5-3.5z"/>
 </symbol>
 <symbol id="wrench" viewBox="0 0 20 20">
  <path d="m8.5 5.8c0-3.2 2.6-5.8 5.8-5.8 0.95 0 1.8 0.23 2.6 0.64 0.21 0.11 0.36 0.31 0.4 0.55 0.03 0.24-0.04 0.48-0.21 0.65l-2.8 2.8 1.1 1.1 2.8-2.8c0.17-0.16 0.41-0.24 0.64-0.21 0.24 0.04 0.44 0.18 0.55 0.39 0.43 0.81 0.67 1.7 0.67 2.7 0 3.2-2.6 5.8-5.8 5.8-0.46 0-0.91-0.05-1.3-0.15l-7.4 7.6c-1.1 1.2-3 1.2-4.2 0.19-1.3-1.1-1.4-3.2-0.21-4.4l7.5-7.7c-0.08-0.4-0.13-0.81-0.13-1.2zm5.8-4.2c-2.4 0-4.2 1.9-4.2 4.2 0 0.44 0.06 0.85 0.18 1.2 0.08 0.26 0.01 0.55-0.18 0.74l-7.8 8c-0.62 0.64-0.58 1.7 0.1 2.2 0.63 0.54 1.6 0.49 2.1-0.1l7.7-7.9c0.2-0.2 0.5-0.28 0.78-0.19 0.42 0.14 0.86 0.21 1.3 0.21 2.4 0 4.2-1.9 4.2-4.2 0-0.34-0.04-0.67-0.12-0.99l-2.5 2.5c-0.29 0.3-0.77 0.3-1.1 0l-2.1-2.1c-0.29-0.29-0.29-0.77 0-1.1l2.5-2.5c-0.3-0.06-0.61-0.1-0.93-0.1z"/>
 </symbol>
 <symbol id="vehicle-airplane" viewBox="0 0 20 20">
  <path d="m7.5 7.6-0.7-5.9v-0.08c0-0.88 0.72-1.6 1.6-1.6 0.8 0 1.5 0.42 2 1.1l0.09 0.16 3 6.1 4-0.12c1.4-0.04 2.6 1.1 2.7 2.5v0.07c0 1.4-1.2 2.6-2.6 2.6l-4-0.12-3 6.2c-0.38 0.79-1.2 1.3-2.1 1.3-0.89 0-1.6-0.72-1.6-1.6v-0.12l0.71-5.9-2.1-0.07-0.27 0.74c-0.28 0.77-1 1.3-1.8 1.3-0.87 0-1.6-0.71-1.6-1.6v-0.76l-0.16-0.03c-0.89-0.19-1.5-0.97-1.5-1.9s0.64-1.7 1.5-1.9l0.16-0.03v-0.76c0-0.8 0.59-1.5 1.4-1.6l0.15-0.01c0.75 0 1.4 0.43 1.8 1.1l0.06 0.15 0.27 0.74 2.1-0.07zm0.91-6c-0.06 0-0.11 0.04-0.11 0.08l0.88 7.4-4.8 0.15-0.62-1.7-0.04-0.08c-0.07-0.15-0.23-0.25-0.35-0.25h-0.06c-0.04 0.01-0.07 0.04-0.07 0.09v2l-1.4 0.28c-0.2 0.04-0.34 0.21-0.34 0.41s0.14 0.37 0.34 0.41l1.4 0.28v2c0 0.05 0.03 0.09 0.08 0.09 0.19 0 0.36-0.12 0.42-0.29l0.64-1.8 4.9 0.15-0.9 7.5v0.03c0 0.06 0.05 0.1 0.11 0.1 0.3 0 0.58-0.17 0.71-0.44l3.4-7.1 4.9 0.15c0.6 0 1.1-0.49 1.1-1.1v-0.04c-0.02-0.61-0.53-1.1-1.1-1.1l-4.9 0.15-3.4-6.9-0.06-0.1c-0.14-0.24-0.4-0.38-0.67-0.38z"/>
 </symbol>
 <symbol id="vehicle-bicycle" viewBox="0 0 20 20">
  <path d="m10 2c-0.41 0-0.75 0.34-0.75 0.75s0.34 0.75 0.75 0.75h1.4l0.95 3.5h-6.6v-2.2c0-0.41-0.34-0.75-0.75-0.75h-3c-0.41 0-0.75 0.34-0.75 0.75s0.34 0.75 0.75 0.75h2.2v2.2l-0.3 1.8c-2.3 0.03-4.2 1.9-4.2 4.2 0 2.4 1.9 4.2 4.2 4.2s4.2-1.9 4.2-4.2v-0.19l4.6-4.6 0.28 1c-1.4 0.68-2.4 2.2-2.4 3.8 0 2.4 1.9 4.2 4.2 4.2s4.2-1.9 4.2-4.2-1.9-4.2-4.2-4.2c-0.13 0-0.25 0.01-0.38 0.02l-1.9-7c-0.09-0.32-0.38-0.55-0.72-0.55h-2zm3.6 9.4 0.7 2.6c0.11 0.4 0.52 0.63 0.92 0.52s0.63-0.52 0.52-0.92l-0.69-2.6c1.5 0.01 2.7 1.2 2.7 2.8 0 1.5-1.2 2.8-2.8 2.8s-2.8-1.2-2.8-2.8c0-1 0.53-1.9 1.3-2.4zm-5.8 0.48c-0.48-0.98-1.3-1.8-2.4-2.1l0.21-1.2h5.6l-3.4 3.4zm-2.6-0.61c0.72 0.34 1.3 0.97 1.5 1.7h-1.8l0.28-1.7zm-1.5-0.24-0.44 2.6c-0.04 0.21 0.03 0.44 0.17 0.6 0.14 0.17 0.35 0.27 0.57 0.27h2.6c-0.33 1.2-1.4 2-2.6 2-1.5 0-2.8-1.2-2.8-2.8 0-1.4 1.1-2.6 2.4-2.7z"/>
 </symbol>
 <symbol id="vehicle-boat" viewBox="0 0 20 20">
  <path d="m13 0c0.41 0 0.75 0.34 0.75 0.75v2.2h2.2c0.41 0 0.75 0.34 0.75 0.75v4.7l1.7 0.6c0.2 0.07 0.36 0.22 0.44 0.42s0.08 0.42-0.02 0.61l-2.5 5c-0.18-0.07-0.38-0.11-0.59-0.11-0.49-0.01-0.95 0.19-1.3 0.52l2.6-5.3-6.8-2.4c-0.39-0.14-0.81-0.14-1.2 0.01l-6.6 2.4 2.6 5.5c-0.33-0.42-0.85-0.68-1.4-0.67-0.18 0-0.35 0.03-0.52 0.09l-2.3-5c-0.09-0.19-0.1-0.41-0.02-0.6 0.08-0.2 0.24-0.35 0.44-0.42l1.5-0.54v-4.8c0-0.41 0.34-0.75 0.75-0.75h2.2v-2.2c0-0.41 0.34-0.75 0.75-0.75zm-0.75 1.5h-5v1.5h5zm-8 3v3.5l4.4-1.6c0.72-0.26 1.5-0.27 2.2-0.01l4.4 1.6v-3.4zm12 12c0.02 0.05 0.05 0.13 0.09 0.22 0.08 0.19 0.22 0.45 0.41 0.7 0.39 0.49 1 0.96 2 0.96 0.41 0 0.75 0.34 0.75 0.75s-0.34 0.75-0.75 0.75c-1.6 0-2.6-0.78-3.2-1.5-0.02-0.03-0.04-0.06-0.06-0.08-0.02 0.02-0.04 0.05-0.06 0.07-0.55 0.73-1.5 1.6-2.9 1.6s-2.4-0.81-2.9-1.6c-0.02-0.03-0.04-0.05-0.06-0.08-0.02 0.03-0.04 0.05-0.06 0.08-0.55 0.74-1.5 1.6-2.9 1.6s-2.4-0.81-2.9-1.6c-0.02-0.03-0.04-0.05-0.06-0.08-0.02 0.03-0.04 0.06-0.07 0.09-0.59 0.76-1.6 1.5-3.2 1.5-0.41 0-0.75-0.34-0.75-0.75s0.34-0.75 0.75-0.75c1 0 1.6-0.47 2-0.96 0.2-0.25 0.33-0.51 0.42-0.7 0.04-0.1 0.07-0.17 0.09-0.23 0.01-0.02 0.01-0.04 0.01-0.05l0.01-0.01c0.08-0.32 0.37-0.54 0.71-0.55 0.33 0 0.63 0.21 0.73 0.53v0.01c0 0.01 0.01 0.03 0.02 0.06 0.02 0.05 0.05 0.13 0.1 0.23 0.09 0.2 0.22 0.46 0.42 0.72 0.38 0.51 0.93 0.95 1.7 0.95s1.4-0.44 1.7-0.95c0.2-0.26 0.33-0.52 0.42-0.72 0.05-0.1 0.08-0.18 0.1-0.23 0.01-0.03 0.01-0.05 0.02-0.06v-0.01c0.1-0.31 0.39-0.53 0.72-0.53s0.62 0.22 0.72 0.53v0.01c0 0.01 0.01 0.03 0.02 0.06 0.02 0.05 0.05 0.13 0.1 0.23 0.09 0.2 0.22 0.46 0.42 0.72 0.38 0.51 0.94 0.95 1.7 0.95s1.4-0.43 1.7-0.95c0.2-0.26 0.33-0.52 0.42-0.72 0.05-0.1 0.08-0.18 0.1-0.23 0.01-0.03 0.02-0.05 0.02-0.06v-0.01c0.1-0.32 0.4-0.54 0.73-0.53 0.34 0.01 0.63 0.23 0.71 0.55l0.01 0.01c0 0.01 0.01 0.03 0.01 0.06z"/>
 </symbol>
 <symbol id="vehicle-bus" viewBox="0 0 20 20">
  <path d="m5 13c0-0.55 0.45-1 1-1s1 0.45 1 1-0.45 1-1 1-1-0.45-1-1zm10 0c0 0.55-0.45 1-1 1s-1-0.45-1-1 0.45-1 1-1 1 0.45 1 1zm-3.8-10c0.42 0 0.75 0.34 0.75 0.75s-0.33 0.75-0.75 0.75h-2.5c-0.41 0-0.75-0.34-0.75-0.75s0.34-0.75 0.75-0.75zm3-3c2.1 0 3.8 1.7 3.8 3.8v3.8h1.2c0.41 0 0.75 0.34 0.75 0.75s-0.34 0.75-0.75 0.75h-1.2v8.8c0 0.97-0.78 1.8-1.8 1.8h-1.5c-0.97 0-1.8-0.78-1.8-1.8v-1.2h-6v1.2c0 0.97-0.78 1.8-1.8 1.8h-1.5c-0.97 0-1.8-0.78-1.8-1.8v-8.8h-1.2c-0.41 0-0.75-0.34-0.75-0.75s0.34-0.75 0.75-0.75h1.2v-3.8c0-2.1 1.7-3.8 3.8-3.8zm0.25 16v1.2c0 0.14 0.11 0.25 0.25 0.25h1.5c0.14 0 0.25-0.11 0.25-0.25v-1.2zm2-5.5h-13v4h13zm-13 7h1.5c0.14 0 0.25-0.11 0.25-0.25v-1.2h-2v1.2c0 0.14 0.11 0.25 0.25 0.25zm-0.25-8.5h13v-5.8c0-1.2-1-2.2-2.2-2.2h-8.5c-1.2 0-2.2 1-2.2 2.2z"/>
 </symbol>
 <symbol id="vehicle-car" viewBox="0 0 20 20">
  <path d="m14 1c1.5 0 2.8 1 3.2 2.5l0.38 1.5h0.92c0.38 0 0.69 0.28 0.74 0.65l0.01 0.1c0 0.38-0.28 0.7-0.65 0.74l-0.1 0.01h-0.54l0.21 0.83c0.65 0.39 1.1 1.1 1.1 1.9v8.5c0 0.96-0.78 1.8-1.8 1.8h-1.5c-0.97 0-1.8-0.79-1.8-1.8v-1.2h-8v1.2c0 0.96-0.78 1.8-1.8 1.8h-1.5c-0.97 0-1.8-0.79-1.8-1.8v-8.5c0-0.81 0.43-1.5 1.1-1.9l0.21-0.83h-0.54c-0.38 0-0.7-0.28-0.75-0.65v-0.1c0-0.38 0.28-0.69 0.65-0.74l0.1-0.01h0.91l0.39-1.5c0.36-1.4 1.7-2.5 3.2-2.5h7.6zm-9.3 16h-2v1.2c0 0.14 0.11 0.25 0.25 0.25h1.5c0.14 0 0.25-0.11 0.25-0.25v-1.2zm13 0h-2v1.2c0 0.14 0.11 0.25 0.25 0.25h1.5c0.14 0 0.25-0.11 0.25-0.25v-1.2zm-0.75-8h-14c-0.42 0-0.75 0.34-0.75 0.75v5.8h15v-5.8c0-0.41-0.33-0.75-0.75-0.75zm-8.5 3.5h3.5c0.41 0 0.75 0.34 0.75 0.75 0 0.38-0.28 0.7-0.65 0.74l-0.1 0.01h-3.5c-0.42 0-0.75-0.33-0.75-0.75 0-0.38 0.28-0.69 0.65-0.74l0.1-0.01h3.5-3.5zm6.8-2c0.55 0 1 0.45 1 1s-0.45 1-1 1-1-0.45-1-1 0.45-1 1-1zm-10 0c0.55 0 1 0.45 1 1s-0.45 1-1 1-1-0.45-1-1 0.45-1 1-1zm8.8-7.5h-7.6c-0.8 0-1.5 0.55-1.7 1.3l-0.79 3.2h13l-0.8-3.2c-0.19-0.78-0.89-1.3-1.7-1.3z"/>
 </symbol>
 <symbol id="visibility-visible" viewBox="0 0 20 20">
  <path d="m10 7c2.2 0 4 1.8 4 4s-1.8 4-4 4-4-1.8-4-4 1.8-4 4-4zm0 1.5c-1.4 0-2.5 1.1-2.5 2.5s1.1 2.5 2.5 2.5 2.5-1.1 2.5-2.5-1.1-2.5-2.5-2.5zm0-5c4.6 0 8.6 3.2 9.7 7.6 0.1 0.4-0.14 0.81-0.54 0.91-0.41 0.1-0.81-0.14-0.91-0.54-0.94-3.8-4.3-6.4-8.2-6.4s-7.3 2.7-8.2 6.4c-0.1 0.4-0.5 0.65-0.91 0.55-0.4-0.1-0.64-0.51-0.54-0.91 1.1-4.4 5.1-7.6 9.7-7.6z"/>
 </symbol>
 <symbol id="visibility-hidden" viewBox="0 0 20 20">
  <path d="m0.22 0.22c-0.27 0.27-0.29 0.68-0.07 0.98l0.07 0.08 4 4c-1.9 1.4-3.4 3.4-4 5.8-0.1 0.41 0.14 0.81 0.54 0.91 0.41 0.1 0.81-0.14 0.91-0.54 0.53-2.1 1.8-3.9 3.6-5l1.8 1.8c-0.7 0.73-1.1 1.7-1.1 2.8 0 2.2 1.8 4 4 4 1.1 0 2.1-0.43 2.8-1.1l5.9 5.9c0.29 0.29 0.77 0.29 1.1 0 0.27-0.27 0.29-0.68 0.07-0.98l-0.07-0.08-6.1-6.1v-0.01l-1.2-1.2-11-11c-0.29-0.29-0.77-0.29-1.1 0zm8 9 3.5 3.5c-0.45 0.44-1.1 0.7-1.7 0.7-1.4 0-2.5-1.1-2.5-2.5 0-0.67 0.27-1.3 0.7-1.7zm1.8-5.8c-1 0-2 0.15-2.9 0.42l1.2 1.2c0.53-0.1 1.1-0.16 1.6-0.16 3.9 0 7.3 2.7 8.2 6.4 0.1 0.4 0.5 0.65 0.91 0.55 0.4-0.1 0.64-0.51 0.54-0.91-1.1-4.4-5.1-7.6-9.7-7.6zm0.19 3.5 3.8 3.8c-0.11-2.1-1.8-3.7-3.8-3.8z"/>
 </symbol>
 <symbol id="text-align-center" viewBox="0 0 20 20">
  <path d="m2 3.8c0-0.41 0.34-0.75 0.75-0.75h14c0.41 0 0.75 0.34 0.75 0.75s-0.34 0.75-0.75 0.75h-14c-0.41 0-0.75-0.34-0.75-0.75zm2 13c0-0.41 0.34-0.75 0.75-0.75h10c0.41 0 0.75 0.34 0.75 0.75s-0.34 0.75-0.75 0.75h-10c-0.41 0-0.75-0.34-0.75-0.75zm15-7.2c0.41 0 0.75 0.34 0.75 0.75s-0.34 0.75-0.75 0.75h-18c-0.41 0-0.75-0.34-0.75-0.75s0.34-0.75 0.75-0.75z"/>
 </symbol>
 <symbol id="text-align-left" viewBox="0 0 20 20">
  <path d="m0 3.8c0-0.41 0.34-0.75 0.75-0.75h16c0.41 0 0.75 0.34 0.75 0.75s-0.34 0.75-0.75 0.75h-16c-0.41 0-0.75-0.34-0.75-0.75zm0 13c0-0.41 0.34-0.75 0.75-0.75h10c0.41 0 0.75 0.34 0.75 0.75s-0.34 0.75-0.75 0.75h-10c-0.41 0-0.75-0.34-0.75-0.75zm19-7.2c0.41 0 0.75 0.34 0.75 0.75s-0.34 0.75-0.75 0.75h-18c-0.41 0-0.75-0.34-0.75-0.75s0.34-0.75 0.75-0.75z"/>
 </symbol>
 <symbol id="text-align-right" viewBox="0 0 20 20">
  <path d="m20 3.8c0-0.41-0.34-0.75-0.75-0.75h-16c-0.41 0-0.75 0.34-0.75 0.75s0.34 0.75 0.75 0.75h16c0.41 0 0.75-0.34 0.75-0.75zm0 13c0-0.41-0.34-0.75-0.75-0.75h-10c-0.41 0-0.75 0.34-0.75 0.75s0.34 0.75 0.75 0.75h10c0.41 0 0.75-0.34 0.75-0.75zm-19-7.2c-0.41 0-0.75 0.34-0.75 0.75s0.34 0.75 0.75 0.75h18c0.41 0 0.75-0.34 0.75-0.75s-0.34-0.75-0.75-0.75z"/>
 </symbol>
 <symbol id="text-align-justify" viewBox="0 0 20 20">
  <path d="m19 3c0.41 0 0.75 0.34 0.75 0.75s-0.34 0.75-0.75 0.75h-18c-0.41 0-0.75-0.34-0.75-0.75s0.34-0.75 0.75-0.75zm0 6.5c0.41 0 0.75 0.34 0.75 0.75s-0.34 0.75-0.75 0.75h-18c-0.41 0-0.75-0.34-0.75-0.75s0.34-0.75 0.75-0.75zm0 6.5c0.41 0 0.75 0.34 0.75 0.75s-0.34 0.75-0.75 0.75h-18c-0.41 0-0.75-0.34-0.75-0.75s0.34-0.75 0.75-0.75z"/>
 </symbol>
 <symbol id="text-bold" viewBox="0 0 20 20">
  <path d="m4.9 2.4c0.28-0.28 0.66-0.44 1.1-0.44h4.4c2.6 0 4.6 2.2 4.6 4.6 0 0.97-0.31 1.9-0.86 2.7 1.1 0.82 1.9 2.1 1.9 3.8 0 3.1-2.7 4.9-4.9 4.9h-5.1c-0.83 0-1.5-0.67-1.5-1.5v-13c0-0.4 0.16-0.78 0.44-1.1zm2.6 5.8h2.9c0.9 0 1.6-0.76 1.6-1.6 0-0.87-0.72-1.6-1.6-1.6h-2.9v3.2zm0 3v3.8h3.6c0.87 0 1.9-0.75 1.9-1.9s-0.97-1.9-1.9-1.9h-3.6z"/>
 </symbol>
 <symbol id="text-italic" viewBox="0 0 20 20">
  <path d="m7.8 2h8.5c0.41 0 0.75 0.34 0.75 0.75 0 0.38-0.28 0.69-0.65 0.74l-0.1 0.01h-3.2l-5 13h4.2c0.38 0 0.69 0.28 0.74 0.65l0.01 0.1c0 0.38-0.29 0.69-0.65 0.74l-0.1 0.01h-9.5c-0.42 0-0.75-0.34-0.75-0.75 0-0.38 0.28-0.69 0.64-0.74l0.11-0.01h3.7l0.02-0.07 5-13h-3.7c-0.38 0-0.7-0.28-0.75-0.65v-0.1c0-0.38 0.28-0.69 0.65-0.74l0.1-0.01h8.5-8.5z"/>
 </symbol>
 <symbol id="text-strikethrough" viewBox="0 0 20 20">
  <path d="m2.8 10h14c0.41 0 0.75 0.33 0.75 0.75 0 0.38-0.28 0.69-0.65 0.74l-0.1 0.01h-3c0.87 0.81 1.3 1.8 1.3 2.9 0 2.8-3.2 4.6-6.8 4.2-2.2-0.26-3.8-1.2-4.6-2.7-0.19-0.36-0.05-0.82 0.31-1 0.37-0.2 0.82-0.06 1 0.31 0.57 1.1 1.7 1.7 3.5 1.9 2.7 0.32 5.1-0.99 5.1-2.7 0-1.2-0.8-2.1-2.6-2.9l-0.12-0.05h-8.7c-0.38 0-0.69-0.28-0.74-0.65l-0.01-0.1c0-0.38 0.28-0.69 0.65-0.74l0.1-0.01h14-14zm1.5-3.9c0.15-2.8 2.8-4.5 6.3-4.1 2.2 0.25 3.9 1 5 2.4 0.26 0.32 0.22 0.79-0.1 1.1-0.32 0.26-0.8 0.21-1.1-0.11-0.85-1-2.2-1.7-4-1.9-2.7-0.32-4.6 0.81-4.6 2.6 0 0.77 0.23 1.4 0.83 2l0.13 0.14c0.09 0.09 0.2 0.19 0.25 0.23l0.03 0.03h-1.9l-0.02-0.04c-0.15-0.21-0.86-1.2-0.8-2.3z"/>
 </symbol>
 <symbol id="text-underline" viewBox="0 0 20 20">
  <path d="m4.8 17h10c0.41 0 0.75 0.34 0.75 0.75 0 0.38-0.28 0.69-0.65 0.74l-0.1 0.01h-10c-0.41 0-0.75-0.34-0.75-0.75 0-0.38 0.28-0.69 0.65-0.74l0.1-0.01h10-10zm10-15c0.38 0 0.69 0.28 0.74 0.65l0.01 0.1v6c0 4.4-2.1 6.8-6 6.8-3.9 0-5.9-2.3-6-6.5v-0.28-6c0-0.41 0.34-0.75 0.75-0.75 0.38 0 0.69 0.28 0.74 0.65l0.01 0.1v6c0 3.6 1.4 5.2 4.5 5.2 3 0 4.4-1.6 4.5-5v-0.27-6c0-0.41 0.34-0.75 0.75-0.75z"/>
 </symbol>
 <symbol id="tune" viewBox="0 0 20 20">
  <path d="m6.8 12c1.5 0 2.8 1.1 3.2 2.5h9.3c0.41 0 0.75 0.34 0.75 0.75 0 0.38-0.28 0.69-0.65 0.74l-0.1 0.01h-9.3c-0.34 1.4-1.6 2.5-3.2 2.5s-2.8-1.1-3.2-2.5h-2.8c-0.41 0-0.75-0.34-0.75-0.75 0-0.38 0.28-0.69 0.65-0.74l0.1-0.01h2.8c0.34-1.4 1.6-2.5 3.2-2.5zm0 1.5c-0.76 0-1.4 0.49-1.6 1.2l-0.06 0.21c-0.03 0.12-0.04 0.24-0.04 0.37 0 0.15 0.02 0.31 0.06 0.45l0.04 0.13 0.02 0.07c0.26 0.64 0.89 1.1 1.6 1.1 0.76 0 1.4-0.49 1.6-1.2l0.04-0.13-0.01 0.06c0.04-0.16 0.07-0.33 0.07-0.51 0-0.1-0.01-0.21-0.03-0.31l-0.03-0.13-0.06-0.21c-0.26-0.64-0.89-1.1-1.6-1.1zm6.5-11c1.5 0 2.8 1.1 3.2 2.5h2.8c0.41 0 0.75 0.34 0.75 0.75 0 0.38-0.28 0.69-0.65 0.74l-0.1 0.01h-2.8c-0.34 1.4-1.6 2.5-3.2 2.5s-2.8-1.1-3.2-2.5h-9.3c-0.41 0-0.75-0.34-0.75-0.75 0-0.38 0.28-0.69 0.65-0.74l0.1-0.01h9.3c0.34-1.4 1.6-2.5 3.2-2.5zm0 1.5c-0.76 0-1.4 0.49-1.6 1.2l-0.06 0.21c-0.03 0.12-0.04 0.24-0.04 0.37 0 0.15 0.02 0.3 0.06 0.45l0.04 0.13 0.02 0.07c0.26 0.64 0.89 1.1 1.6 1.1 0.76 0 1.4-0.49 1.6-1.2l0.04-0.13-0.01 0.06c0.04-0.16 0.07-0.33 0.07-0.51 0-0.1-0.01-0.21-0.03-0.31l-0.03-0.13-0.06-0.21c-0.26-0.64-0.89-1.1-1.6-1.1z"/>
 </symbol>
</svg>
