<?xml version="1.0" encoding="UTF-8"?>
<svg version="1.1" xmlns="http://www.w3.org/2000/svg">
 <symbol id="add" viewBox="0 0 20 20">
  <path d="m18 11h-7v7h-2v-7h-7v-2h7v-7h2v7h7v2z"/>
 </symbol>
 <symbol id="alert" viewBox="0 0 20 20">
  <path d="m10 20c1.1 0 2-0.9 2-2h-4c0 1.1 0.9 2 2 2zm6-6v-5c0-3.1-1.6-5.6-4.5-6.3v-0.68c0-0.83-0.67-1.5-1.5-1.5s-1.5 0.67-1.5 1.5v0.68c-2.9 0.68-4.5 3.2-4.5 6.3v5l-2 2v1h16v-1l-2-2zm-2 1h-8v-6c0-2.5 1.5-4.5 4-4.5s4 2 4 4.5v6z"/>
 </symbol>
 <symbol id="bookmark" viewBox="0 0 20 20">
  <path d="m15 1h-10c-1.1 0-2 0.9-2 2v16l7-3 7 3v-16c0-1.1-0.9-2-2-2zm0 15-5-2.2-5 2.2v-13h10v13z"/>
 </symbol>
 <symbol id="bug" viewBox="0 0 20 20">
  <path d="m18 6h-2.8c-0.45-0.78-1.1-1.4-1.8-2l1.6-1.6-1.4-1.4-2.2 2.2c-0.46-0.11-0.93-0.17-1.4-0.17s-0.96 0.06-1.4 0.17l-2.2-2.2-1.4 1.4 1.6 1.6c-0.74 0.51-1.4 1.2-1.8 2h-2.8v2h2.1c-0.05 0.33-0.09 0.66-0.09 1v1h-2v2h2v1c0 0.34 0.04 0.67 0.09 1h-2.1v2h2.8c1 1.8 3 3 5.2 3s4.2-1.2 5.2-3h2.8v-2h-2.1c0.05-0.33 0.09-0.66 0.09-1v-1h2v-2h-2v-1c0-0.34-0.04-0.67-0.09-1h2.1v-2zm-4 4v3c0 0.22-0.03 0.47-0.07 0.7l-0.1 0.65-0.37 0.65c-0.72 1.2-2 2-3.5 2s-2.7-0.77-3.5-2l-0.37-0.64-0.1-0.65c-0.04-0.23-0.07-0.48-0.07-0.71v-4c0-0.23 0.03-0.48 0.07-0.7l0.1-0.65 0.37-0.65c0.3-0.52 0.72-0.97 1.2-1.3l0.57-0.39 0.74-0.18c0.31-0.08 0.63-0.12 0.94-0.12 0.32 0 0.63 0.04 0.95 0.12l0.68 0.16 0.61 0.42c0.5 0.34 0.91 0.78 1.2 1.3l0.38 0.65 0.1 0.65c0.04 0.22 0.07 0.47 0.07 0.69v1zm-6 2h4v2h-4zm0-4h4v2h-4z"/>
 </symbol>
 <symbol id="calendar" viewBox="0 0 20 20">
  <path d="m17 1h-1v-2h-2v2h-8v-2h-2v2h-1c-1.1 0-2 0.9-2 2l-0.01 14c0 1.1 0.89 2 2 2h14c1.1 0 2-0.9 2-2v-14c0-1.1-0.9-2-2-2zm0 16h-14v-10h14v10zm0-12h-14v-2h14v2zm-7 5h5v5h-5z"/>
 </symbol>
 <symbol id="chevron-left" viewBox="0 0 20 20">
  <path d="m15 3.6-1.6-1.6-8 8 8 8 1.6-1.6-6.4-6.4 6.4-6.4z"/>
 </symbol>
 <symbol id="chevron-right" viewBox="0 0 20 20">
  <path d="m5.2 3.6 1.6-1.6 8 8-8 8-1.6-1.6 6.4-6.4-6.4-6.4z"/>
 </symbol>
 <symbol id="clock" viewBox="0 0 20 20">
  <path d="m20 10c0 5.5-4.5 10-10 10-5.5 0-10-4.5-10-10s4.5-10 10-10c5.5 0 10 4.5 10 10zm-2 0c0-4.4-3.6-8-8-8s-8 3.6-8 8 3.6 8 8 8 8-3.6 8-8zm-7.5 0.25 4.5 2.7-0.75 1.2-5.2-3.2v-6h1.5z"/>
 </symbol>
 <symbol id="code" viewBox="0 0 20 20">
  <path d="m7.4 15-4.6-4.6 4.6-4.6-1.4-1.4-6 6 6 6 1.4-1.4zm5.2 0 4.6-4.6-4.6-4.6 1.4-1.4 6 6-6 6-1.4-1.4z"/>
 </symbol>
 <symbol id="color-palette" viewBox="0 0 20 20">
  <path d="m10 20c-5.5 0-10-4.5-10-10s4.5-10 10-10 10 4 10 9c0 3.3-2.7 6-6 6h-1.8c-0.28 0-0.5 0.22-0.5 0.5 0 0.12 0.05 0.23 0.13 0.33 0.41 0.47 0.64 1.1 0.64 1.7 0 1.4-1.1 2.5-2.5 2.5zm0-18c-4.4 0-8 3.6-8 8s3.6 8 8 8c0.28 0 0.5-0.22 0.5-0.5 0-0.16-0.08-0.28-0.14-0.35-0.41-0.46-0.63-1-0.63-1.6 0-1.4 1.1-2.5 2.5-2.5h1.8c2.2 0 4-1.8 4-4 0-3.9-3.6-7-8-7zm-4 7.5c0 0.83-0.67 1.5-1.5 1.5s-1.5-0.67-1.5-1.5 0.67-1.5 1.5-1.5 1.5 0.67 1.5 1.5zm3-4c0 0.83-0.67 1.5-1.5 1.5s-1.5-0.67-1.5-1.5 0.67-1.5 1.5-1.5 1.5 0.67 1.5 1.5zm5 0c0 0.83-0.67 1.5-1.5 1.5s-1.5-0.67-1.5-1.5 0.67-1.5 1.5-1.5 1.5 0.67 1.5 1.5zm3 4c0 0.83-0.67 1.5-1.5 1.5s-1.5-0.67-1.5-1.5 0.67-1.5 1.5-1.5 1.5 0.67 1.5 1.5z"/>
 </symbol>
 <symbol id="comment" viewBox="0 0 20 20">
  <path d="m13 2v7h-9.8l-1.2 1.2v-8.2h11m1-2h-13c-0.55 0-1 0.45-1 1v14l4-4h10c0.55 0 1-0.45 1-1v-9c0-0.55-0.45-1-1-1zm5 4h-2v9h-13v2c0 0.55 0.45 1 1 1h11l4 4v-15c0-0.55-0.45-1-1-1z"/>
 </symbol>
 <symbol id="copy" viewBox="0 0 20 20">
  <path d="m14-1h-12c-1.1 0-2 0.9-2 2v14h2v-14h12v-2zm3 4h-11c-1.1 0-2 0.9-2 2v14c0 1.1 0.9 2 2 2h11c1.1 0 2-0.9 2-2v-14c0-1.1-0.9-2-2-2zm0 16h-11v-14h11v14z"/>
 </symbol>
 <symbol id="credit-card" viewBox="0 0 20 20">
  <path d="m18 2h-16c-1.1 0-2 0.89-2 2l-0.01 12c0 1.1 0.89 2 2 2h16c1.1 0 2-0.89 2-2v-12c0-1.1-0.89-2-2-2zm0 14h-16v-6h16v6zm0-10h-16v-2h16v2z"/>
 </symbol>
 <symbol id="crop" viewBox="0 0 20 20">
  <path d="m15 13h2v-8c0-1.1-0.9-2-2-2h-8v2h8v8zm-10 2v-16h-2v4h-4v2h4v10c0 1.1 0.9 2 2 2h10v4h2v-4h4v-2h-16z"/>
 </symbol>
 <symbol id="cut" viewBox="0 0 20 20">
  <path d="m7.6 5.6c0.23-0.5 0.36-1 0.36-1.6 0-2.2-1.8-4-4-4s-4 1.8-4 4 1.8 4 4 4c0.59 0 1.1-0.13 1.6-0.36l2.4 2.4-2.4 2.4c-0.5-0.23-1-0.36-1.6-0.36-2.2 0-4 1.8-4 4s1.8 4 4 4 4-1.8 4-4c0-0.59-0.13-1.1-0.36-1.6l2.4-2.4 7 7h3v-1l-12-12zm-3.6 0.36c-1.1 0-2-0.89-2-2s0.9-2 2-2 2 0.89 2 2-0.9 2-2 2zm0 12c-1.1 0-2-0.89-2-2s0.9-2 2-2 2 0.89 2 2-0.9 2-2 2zm6-7.5c-0.28 0-0.5-0.22-0.5-0.5s0.22-0.5 0.5-0.5 0.5 0.22 0.5 0.5-0.22 0.5-0.5 0.5zm7-9.5-6 6 2 2 7-7v-1h-3z"/>
 </symbol>
 <symbol id="delete" viewBox="0 0 20 20">
  <path d="m14 7v10h-8v-10h8m-1.5-6h-5l-1 1h-3.5v2h14v-2h-3.5l-1-1zm3.5 4h-12v12c0 1.1 0.9 2 2 2h8c1.1 0 2-0.9 2-2v-12z"/>
 </symbol>
 <symbol id="earth" viewBox="0 0 20 20">
  <path d="m10 0c-5.5 0-10 4.5-10 10s4.5 10 10 10 10-4.5 10-10-4.5-10-10-10zm-8 10c0-0.61 0.08-1.2 0.21-1.8l4.8 4.8v1c0 1.1 0.9 2 2 2v1.9c-3.9-0.5-7-3.9-7-7.9zm14 5.4c-0.26-0.81-1-1.4-1.9-1.4h-1v-3c0-0.55-0.45-1-1-1h-6v-2h2c0.55 0 1-0.45 1-1v-2h2c1.1 0 2-0.9 2-2v-0.41c2.9 1.2 5 4.1 5 7.4 0 2.1-0.81 4-2.1 5.4z"/>
 </symbol>
 <symbol id="edit" viewBox="0 0 20 20">
  <path d="m12 7 0.92 0.92-9.1 9.1h-0.92v-0.92l9.1-9.1m3.6-6c-0.25 0-0.51 0.1-0.7 0.29l-1.8 1.8 3.8 3.8 1.8-1.8c0.39-0.39 0.39-1 0-1.4l-2.3-2.3c-0.2-0.2-0.45-0.29-0.71-0.29zm-3.6 3.2-11 11v3.8h3.8l11-11-3.8-3.8z"/>
 </symbol>
 <symbol id="flag" viewBox="0 0 20 20">
  <path d="m10 4 0.4 2h5.2v6h-3.4l-0.4-2h-7.2v-6h5.4m1.6-2h-9v17h2v-7h5.6l0.4 2h7v-10h-5.6l-0.4-2z"/>
 </symbol>
 <symbol id="folder" viewBox="0 0 20 20">
  <path d="m7.2 4 2 2h8.8v10h-16v-12h5.2m0.83-2h-6c-1.1 0-2 0.9-2 2l-0.01 12c0 1.1 0.9 2 2 2h16c1.1 0 2-0.9 2-2v-10c0-1.1-0.9-2-2-2h-8l-2-2z"/>
 </symbol>
 <symbol id="help" viewBox="0 0 20 20">
  <path d="m9 16h2v-2h-2v2zm1-16c-5.5 0-10 4.5-10 10s4.5 10 10 10 10-4.5 10-10-4.5-10-10-10zm0 18c-4.4 0-8-3.6-8-8s3.6-8 8-8 8 3.6 8 8-3.6 8-8 8zm0-14c-2.2 0-4 1.8-4 4h2c0-1.1 0.9-2 2-2s2 0.9 2 2c0 2-3 1.8-3 5h2c0-2.2 3-2.5 3-5 0-2.2-1.8-4-4-4z"/>
 </symbol>
 <symbol id="history-redo" viewBox="0 0 20 20">
  <path d="m9.5 6c2.6 0 5 0.99 6.9 2.6l3.6-3.6v9h-9l3.6-3.6c-1.4-1.2-3.2-1.9-5.1-1.9-3.5 0-6.6 2.3-7.6 5.5l-2.4-0.78c1.4-4.2 5.3-7.2 10-7.2z"/>
 </symbol>
 <symbol id="history-undo" viewBox="0 0 20 20">
  <path d="m10 6c-2.6 0-5 0.99-6.9 2.6l-3.6-3.6v9h9l-3.6-3.6c1.4-1.2 3.2-1.9 5.1-1.9 3.5 0 6.6 2.3 7.6 5.5l2.4-0.78c-1.4-4.2-5.3-7.2-10-7.2z"/>
 </symbol>
 <symbol id="home" viewBox="0 0 20 20">
  <path d="m10 3.7 5 4.5v7.8h-2v-6h-6v6h-2v-7.8l5-4.5m0-2.7-10 9h3v8h6v-6h2v6h6v-8h3l-10-9z"/>
 </symbol>
 <symbol id="image" viewBox="0 0 20 20">
  <path d="m17 3v14h-14v-14h14m0-2h-14c-1.1 0-2 0.9-2 2v14c0 1.1 0.9 2 2 2h14c1.1 0 2-0.9 2-2v-14c0-1.1-0.9-2-2-2zm-4.9 8.9-3 3.9-2.1-2.6-3 3.9h12l-3.9-5.1z"/>
 </symbol>
 <symbol id="info" viewBox="0 0 20 20">
  <path d="m9 5h2v2h-2zm0 4h2v6h-2zm1-9c-5.5 0-10 4.5-10 10s4.5 10 10 10 10-4.5 10-10-4.5-10-10-10zm0 18c-4.4 0-8-3.6-8-8s3.6-8 8-8 8 3.6 8 8-3.6 8-8 8z"/>
 </symbol>
 <symbol id="link" viewBox="0 0 20 20">
  <path d="m1.9 10c0-1.7 1.4-3 3.1-3h4v-2h-4c-3.8 0-6.3 4.2-4.3 7.5 0.9 1.5 2.5 2.5 4.3 2.5h4v-2h-4c-1.7 0-3.1-1.3-3.1-3zm4.1 1h8v-2h-8v2zm9-6h-4v2h4c2.4 0 3.9 2.5 2.7 4.5-0.6 1-1.6 1.5-2.7 1.5h-4v2h4c3.8 0 6.3-4.2 4.3-7.5-0.9-1.5-2.5-2.5-4.3-2.5z"/>
 </symbol>
 <symbol id="lock" viewBox="0 0 20 20">
  <path d="m16 6h-1v-2c0-2.8-2.2-5-5-5s-5 2.2-5 5v2h-1c-1.1 0-2 0.9-2 2v10c0 1.1 0.9 2 2 2h12c1.1 0 2-0.9 2-2v-10c0-1.1-0.9-2-2-2zm-9-2c0-1.7 1.3-3 3-3s3 1.3 3 3v2h-6v-2zm9 14h-12v-10h12v10zm-6-3c1.1 0 2-0.9 2-2s-0.9-2-2-2-2 0.9-2 2 0.9 2 2 2z"/>
 </symbol>
 <symbol id="logout" viewBox="0 0 20 20">
  <path d="m15 5-1.4 1.4 2.6 2.6h-10v2h10l-2.6 2.6 1.4 1.4 5-5zm-13-2h8v-2h-8c-1.1 0-2 0.9-2 2v14c0 1.1 0.9 2 2 2h8v-2h-8v-14z"/>
 </symbol>
 <symbol id="mail" viewBox="0 0 20 20">
  <path d="m20 4c0-1.1-0.9-2-2-2h-16c-1.1 0-2 0.9-2 2v12c0 1.1 0.9 2 2 2h16c1.1 0 2-0.9 2-2v-12zm-2 0-8 5-8-5h16zm0 12h-16v-10l8 5 8-5v10z"/>
 </symbol>
 <symbol id="menu" viewBox="0 0 20 20">
  <path d="m1 16h18v-2h-18v2zm0-5h18v-2h-18v2zm0-7v2h18v-2h-18z"/>
 </symbol>
 <symbol id="note" viewBox="0 0 20 20">
  <path d="m14 2h-12c-1.1 0-2 0.9-2 2v12c0 1.1 0.9 2 2 2h16c1.1 0 2-0.9 2-2v-8l-6-6zm-12 14v-12h11v5h5v7h-16z"/>
 </symbol>
 <symbol id="open" viewBox="0 0 20 20">
  <path d="m17 17h-14v-14h7v-2h-7c-1.1 0-2 0.9-2 2v14c0 1.1 0.89 2 2 2h14c1.1 0 2-0.9 2-2v-7h-2v7zm-5-16v2h3.6l-9.8 9.8 1.4 1.4 9.8-9.8v3.6h2v-7h-7z"/>
 </symbol>
 <symbol id="paste" viewBox="0 0 20 20">
  <path d="m17 0h-4.2c-0.42-1.2-1.5-2-2.8-2s-2.4 0.84-2.8 2h-4.2c-1.1 0-2 0.9-2 2v16c0 1.1 0.9 2 2 2h14c1.1 0 2-0.9 2-2v-16c0-1.1-0.9-2-2-2zm-7 0c0.55 0 1 0.45 1 1s-0.45 1-1 1-1-0.45-1-1 0.45-1 1-1zm7 18h-14v-16h2v3h10v-3h2v16z"/>
 </symbol>
 <symbol id="person" viewBox="0 0 20 20">
  <path d="m10 4c1.1 0 2 0.9 2 2s-0.9 2-2 2-2-0.9-2-2 0.9-2 2-2m0 10c2.7 0 5.8 1.3 6 2h-12c0.23-0.72 3.3-2 6-2m0-12c-2.2 0-4 1.8-4 4s1.8 4 4 4 4-1.8 4-4-1.8-4-4-4zm0 10c-2.7 0-8 1.3-8 4v2h16v-2c0-2.7-5.3-4-8-4z"/>
 </symbol>
 <symbol id="pin" viewBox="0 0 20 20">
  <path d="m12 2v5c0 1.1 0.37 2.2 1 3h-6c0.65-0.86 1-1.9 1-3v-5h4m3-2h-10c-0.55 0-1 0.45-1 1s0.45 1 1 1h1v5c0 1.7-1.3 3-3 3v2h6v7l1 1 1-1v-7h6v-2c-1.7 0-3-1.3-3-3v-5h1c0.55 0 1-0.45 1-1s-0.45-1-1-1z"/>
 </symbol>
 <symbol id="question" viewBox="0 0 20 20">
  <path d="m8.2 21h3.6v-3.6h-3.6v3.6zm1.8-22c-4 0-7.2 3.2-7.2 7.1h3.6c0-2 1.6-3.6 3.6-3.6s3.6 1.6 3.6 3.6c0 3.6-5.4 3.2-5.4 9h3.6c0-4.1 5.4-4.5 5.4-9 0-3.9-3.2-7.1-7.2-7.1z"/>
 </symbol>
 <symbol id="refresh" viewBox="0 0 20 20">
  <path d="m16 4.4c-1.4-1.4-3.4-2.4-5.6-2.4-4.4 0-8 3.6-8 8s3.6 8 8 8c3.7 0 6.8-2.6 7.7-6h-2.1c-0.82 2.3-3 4-5.6 4-3.3 0-6-2.7-6-6s2.7-6 6-6c1.7 0 3.1 0.69 4.2 1.8l-3.2 3.2h7v-7l-2.4 2.4z"/>
 </symbol>
 <symbol id="remove" viewBox="0 0 20 20">
  <path d="m18 11h-16v-2h16v2z"/>
 </symbol>
 <symbol id="search" viewBox="0 0 20 20">
  <path d="m14 12h-0.79l-0.28-0.27c0.98-1.1 1.6-2.6 1.6-4.2 0-3.6-2.9-6.5-6.5-6.5s-6.5 2.9-6.5 6.5 2.9 6.5 6.5 6.5c1.6 0 3.1-0.59 4.2-1.6l0.27 0.28v0.79l5 5 1.5-1.5-5-5zm-6 0c-2.5 0-4.5-2-4.5-4.5s2-4.5 4.5-4.5 4.5 2 4.5 4.5-2 4.5-4.5 4.5z"/>
 </symbol>
 <symbol id="send" viewBox="0 0 20 20">
  <path d="m2 4 7.5 3.2-7.5-1 0.01-2.2m7.5 8.7-7.5 3.2v-2.2l7.5-1m-9.5-12-0.01 7 15 2-15 2 0.01 7 21-9-21-9z"/>
 </symbol>
 <symbol id="settings" viewBox="0 0 20 20">
  <path d="m17 11c0.04-0.32 0.07-0.64 0.07-0.98s-0.03-0.66-0.07-0.98l2.1-1.6c0.19-0.15 0.24-0.42 0.12-0.64l-2-3.5c-0.09-0.16-0.26-0.25-0.44-0.25-0.06 0-0.12 0.01-0.17 0.03l-2.5 1c-0.52-0.4-1.1-0.73-1.7-0.98l-0.38-2.6c-0.03-0.24-0.24-0.42-0.49-0.42h-4c-0.25 0-0.46 0.18-0.49 0.42l-0.38 2.6c-0.61 0.25-1.2 0.59-1.7 0.98l-2.5-1c-0.06-0.02-0.12-0.03-0.18-0.03-0.17 0-0.34 0.09-0.43 0.25l-2 3.5c-0.13 0.22-0.07 0.49 0.12 0.64l2.1 1.6c-0.04 0.32-0.07 0.65-0.07 0.98s0.03 0.66 0.07 0.98l-2.1 1.6c-0.19 0.15-0.24 0.42-0.12 0.64l2 3.5c0.09 0.16 0.26 0.25 0.44 0.25 0.06 0 0.12-0.01 0.17-0.03l2.5-1c0.52 0.4 1.1 0.73 1.7 0.98l0.38 2.6c0.03 0.24 0.24 0.42 0.49 0.42h4c0.25 0 0.46-0.18 0.49-0.42l0.38-2.6c0.61-0.25 1.2-0.59 1.7-0.98l2.5 1c0.06 0.02 0.12 0.03 0.18 0.03 0.17 0 0.34-0.09 0.43-0.25l2-3.5c0.12-0.22 0.07-0.49-0.12-0.64l-2.1-1.6zm-2-1.7c0.04 0.31 0.05 0.52 0.05 0.73s-0.02 0.43-0.05 0.73l-0.14 1.1 2 1.5-0.7 1.2-2.3-0.93-0.9 0.68c-0.43 0.32-0.84 0.56-1.2 0.73l-1.1 0.43-0.16 1.1-0.2 1.4h-1.4l-0.35-2.5-1.1-0.43c-0.43-0.18-0.83-0.41-1.2-0.71l-0.91-0.7-2.3 0.94-0.7-1.2 2-1.5-0.14-1.1c-0.03-0.31-0.05-0.54-0.05-0.74s0.02-0.43 0.05-0.73l0.14-1.1-2-1.5 0.7-1.2 2.3 0.93 0.9-0.68c0.43-0.32 0.84-0.56 1.2-0.73l1.1-0.43 0.16-1.1 0.2-1.4h1.4l0.35 2.5 1.1 0.43c0.43 0.18 0.83 0.41 1.2 0.71l0.91 0.7 2.3-0.94 0.7 1.2-1.1 0.85-0.89 0.7 0.14 1.1zm-5.4-3.3c-2.2 0-4 1.8-4 4s1.8 4 4 4 4-1.8 4-4-1.8-4-4-4zm0 6c-1.1 0-2-0.9-2-2s0.9-2 2-2 2 0.9 2 2-0.9 2-2 2z"/>
 </symbol>
 <symbol id="sort" viewBox="0 0 20 20">
  <path d="m1 16h6v-2h-6v2zm0-12v2h18v-2h-18zm0 7h12v-2h-12v2z"/>
 </symbol>
 <symbol id="toggle-off" viewBox="0 0 20 20">
  <path d="m15 4h-10c-3.3 0-6 2.7-6 6s2.7 6 6 6h10c3.3 0 6-2.7 6-6s-2.7-6-6-6zm0 10h-10c-2.2 0-4-1.8-4-4s1.8-4 4-4h10c2.2 0 4 1.8 4 4s-1.8 4-4 4zm-10-7c-1.7 0-3 1.3-3 3s1.3 3 3 3 3-1.3 3-3-1.3-3-3-3z"/>
 </symbol>
 <symbol id="toggle-on" viewBox="0 0 20 20">
  <path d="m15 4h-10c-3.3 0-6 2.7-6 6s2.7 6 6 6h10c3.3 0 6-2.7 6-6s-2.7-6-6-6zm0 10h-10c-2.2 0-4-1.8-4-4s1.8-4 4-4h10c2.2 0 4 1.8 4 4s-1.8 4-4 4zm0-7c-1.7 0-3 1.3-3 3s1.3 3 3 3 3-1.3 3-3-1.3-3-3-3z"/>
 </symbol>
 <symbol id="wrench" viewBox="0 0 20 20">
  <path d="m21 17-9.1-9.1c0.93-2.3 0.45-5.1-1.4-7-2.3-2.3-5.9-2.5-8.4-0.65l3.8 3.8-1.4 1.4-3.8-3.8c-1.9 2.5-1.6 6.1 0.65 8.4 1.9 1.9 4.6 2.4 6.9 1.5l9.1 9.1c0.39 0.39 1 0.39 1.4 0l2.3-2.3c0.4-0.38 0.4-1 0-1.4zm-3 1.6-9.5-9.5c-0.61 0.45-1.3 0.72-2 0.82-1.4 0.2-2.8-0.21-3.8-1.2-0.95-0.94-1.4-2.2-1.3-3.4l3.1 3.1 4.2-4.2-3.1-3.1c1.2-0.07 2.5 0.37 3.4 1.3 1.1 1.1 1.5 2.6 1.2 4-0.12 0.71-0.42 1.4-0.88 2l9.4 9.4-0.88 0.89z"/>
 </symbol>
 <symbol id="vehicle-airplane" viewBox="0 0 20 20">
  <path d="m20 14v-2l-8-5v-5.5c0-0.83-0.67-1.5-1.5-1.5s-1.5 0.67-1.5 1.5v5.5l-8 5v2l8-2.5v5.5l-2 1.5v1.5l3.5-1 3.5 1v-1.5l-2-1.5v-5.5l8 2.5z"/>
 </symbol>
 <symbol id="vehicle-bicycle" viewBox="0 0 20 20">
  <path d="m14 3.5c1.1 0 2-0.9 2-2s-0.9-2-2-2-2 0.9-2 2 0.9 2 2 2zm-10 6.5c-2.8 0-5 2.2-5 5s2.2 5 5 5 5-2.2 5-5-2.2-5-5-5zm0 8.5c-1.9 0-3.5-1.6-3.5-3.5s1.6-3.5 3.5-3.5 3.5 1.6 3.5 3.5-1.6 3.5-3.5 3.5zm5.8-10 2.4-2.4 0.8 0.8c1.3 1.3 3 2.1 5.1 2.1v-2c-1.5 0-2.7-0.6-3.6-1.5l-1.9-1.9c-0.5-0.4-1-0.6-1.6-0.6s-1.1 0.2-1.4 0.6l-2.8 2.8c-0.4 0.4-0.6 0.9-0.6 1.4 0 0.6 0.2 1.1 0.6 1.4l3.2 2.8v5h2v-6.2l-2.2-2.3zm8.2 1.5c-2.8 0-5 2.2-5 5s2.2 5 5 5 5-2.2 5-5-2.2-5-5-5zm0 8.5c-1.9 0-3.5-1.6-3.5-3.5s1.6-3.5 3.5-3.5 3.5 1.6 3.5 3.5-1.6 3.5-3.5 3.5z"/>
 </symbol>
 <symbol id="vehicle-boat" viewBox="0 0 20 20">
  <path d="m11 1v1h-2v-1h2m-1 7.1 7.8 2.6-1.1 4c-0.54-0.3-0.94-0.71-1.1-0.94l-1.5-1.7-1.5 1.7c-0.34 0.4-1.3 1.3-2.5 1.3s-2.2-0.92-2.5-1.3l-1.5-1.7-1.5 1.7c-0.2 0.23-0.6 0.63-1.1 0.93l-1.1-4 7.8-2.5m3-9.1h-6v3h-3c-1.1 0-2 0.9-2 2v4.6l-1.3 0.42c-0.26 0.08-0.48 0.26-0.6 0.5s-0.15 0.52-0.06 0.78l1.9 6.7h0.05c1.6 0 3-0.88 4-2 0.98 1.1 2.4 2 4 2s3-0.88 4-2c0.98 1.1 2.4 2 4 2h0.05l1.9-6.7c0.08-0.26 0.06-0.54-0.06-0.78s-0.34-0.42-0.6-0.5l-1.3-0.42v-4.6c0-1.1-0.9-2-2-2h-3v-3zm-9 9v-4h12v4l-6-2-6 2zm10 9.7c-1.2 0.85-2.6 1.3-4 1.3s-2.8-0.43-4-1.3c-1.2 0.85-2.6 1.3-4 1.3h-2v2h2c1.4 0 2.7-0.35 4-0.99 1.3 0.64 2.6 0.97 4 0.97s2.7-0.32 4-0.97c1.3 0.65 2.6 0.99 4 0.99h2v-2h-2c-1.4 0-2.8-0.47-4-1.3z"/>
 </symbol>
 <symbol id="vehicle-bus" viewBox="0 0 20 20">
  <path d="m18 4v10c0 0.88-0.39 1.7-1 2.2v1.8c0 0.55-0.45 1-1 1h-1c-0.55 0-1-0.45-1-1v-1h-8v1c0 0.55-0.45 1-1 1h-1c-0.55 0-1-0.45-1-1v-1.8c-0.61-0.55-1-1.3-1-2.2v-10c0-3.5 3.6-4 8-4s8 0.5 8 4zm-8-2c-3.7 0-5.1 0.46-5.7 0.99h11c-0.55-0.53-2-0.99-5.7-0.99zm-6 3v3h12v-3zm12 9v-4h-12v4c0 0.37 0.21 0.62 0.34 0.73l0.29 0.27h11l0.29-0.27c0.13-0.11 0.34-0.36 0.34-0.73zm-8-1.5c0 0.83-0.67 1.5-1.5 1.5s-1.5-0.67-1.5-1.5 0.67-1.5 1.5-1.5 1.5 0.67 1.5 1.5zm7 0c0 0.83-0.67 1.5-1.5 1.5s-1.5-0.67-1.5-1.5 0.67-1.5 1.5-1.5 1.5 0.67 1.5 1.5z"/>
 </symbol>
 <symbol id="vehicle-car" viewBox="0 0 20 20">
  <path d="m19 10v8c0 0.55-0.45 1-1 1h-1c-0.55 0-1-0.45-1-1v-1h-12v1c0 0.55-0.45 1-1 1h-1c-0.55 0-1-0.45-1-1v-8l2.1-6c0.21-0.59 0.76-1 1.4-1h11c0.66 0 1.2 0.42 1.4 1zm-15-1.9h12l-1.1-3.1h-10zm13 1.9h-14v5h14zm-10 2.5c0 0.83-0.67 1.5-1.5 1.5s-1.5-0.67-1.5-1.5 0.67-1.5 1.5-1.5 1.5 0.67 1.5 1.5zm9 0c0 0.83-0.67 1.5-1.5 1.5s-1.5-0.67-1.5-1.5 0.67-1.5 1.5-1.5 1.5 0.67 1.5 1.5z"/>
 </symbol>
 <symbol id="visibility-visible" viewBox="0 0 20 20">
  <path d="m10 4.5c3.8 0 7.2 2.1 8.8 5.5-1.6 3.4-5 5.5-8.8 5.5s-7.2-2.1-8.8-5.5c1.6-3.4 5-5.5 8.8-5.5m0-2c-5 0-9.3 3.1-11 7.5 1.7 4.4 6 7.5 11 7.5s9.3-3.1 11-7.5c-1.7-4.4-6-7.5-11-7.5zm0 5c1.4 0 2.5 1.1 2.5 2.5s-1.1 2.5-2.5 2.5-2.5-1.1-2.5-2.5 1.1-2.5 2.5-2.5m0-2c-2.5 0-4.5 2-4.5 4.5s2 4.5 4.5 4.5 4.5-2 4.5-4.5-2-4.5-4.5-4.5z"/>
 </symbol>
 <symbol id="visibility-hidden" viewBox="0 0 20 20">
  <path d="m10 4.5c3.8 0 7.2 2.1 8.8 5.5-0.59 1.2-1.4 2.3-2.4 3.1l1.4 1.4c1.4-1.2 2.5-2.8 3.2-4.5-1.7-4.4-6-7.5-11-7.5-1.3 0-2.5 0.2-3.6 0.57l1.6 1.6c0.65-0.13 1.3-0.22 2-0.22zm-1.1 1.1 2.1 2.1c0.57 0.25 1 0.71 1.3 1.3l2.1 2.1c0.08-0.34 0.14-0.7 0.14-1.1 0.01-2.5-2-4.5-4.5-4.5-0.37 0-0.72 0.05-1.1 0.14zm-8.9-3.3 2.7 2.7c-1.6 1.3-2.9 3-3.7 5 1.7 4.4 6 7.5 11 7.5 1.5 0 3-0.29 4.3-0.82l3.4 3.4 1.4-1.4-18-18-1.4 1.4zm7.5 7.5 2.6 2.6c-0.04 0.01-0.08 0.02-0.12 0.02-1.4 0-2.5-1.1-2.5-2.5 0-0.05 0.01-0.08 0.01-0.13zm-3.4-3.4 1.8 1.8c-0.23 0.55-0.36 1.2-0.36 1.8 0 2.5 2 4.5 4.5 4.5 0.63 0 1.2-0.13 1.8-0.36l0.98 0.98c-0.88 0.24-1.8 0.38-2.8 0.38-3.8 0-7.2-2.1-8.8-5.5 0.7-1.4 1.7-2.6 2.9-3.5z"/>
 </symbol>
 <symbol id="text-align-center" viewBox="0 0 20 20">
  <path d="m5 13v2h10v-2h-10zm-4 6h18v-2h-18v2zm0-8h18v-2h-18v2zm4-6v2h10v-2h-10zm-4-4v2h18v-2h-18z"/>
 </symbol>
 <symbol id="text-align-left" viewBox="0 0 20 20">
  <path d="m13 13h-12v2h12v-2zm0-8h-12v2h12v-2zm-12 6h18v-2h-18v2zm0 8h18v-2h-18v2zm0-18v2h18v-2h-18z"/>
 </symbol>
 <symbol id="text-align-right" viewBox="0 0 20 20">
  <path d="m1 19h18v-2h-18v2zm6-4h12v-2h-12v2zm-6-4h18v-2h-18v2zm6-4h12v-2h-12v2zm-6-6v2h18v-2h-18z"/>
 </symbol>
 <symbol id="text-align-justify" viewBox="0 0 20 20">
  <path d="m1 19h18v-2h-18v2zm0-4h18v-2h-18v2zm0-4h18v-2h-18v2zm0-4h18v-2h-18v2zm0-6v2h18v-2h-18z"/>
 </symbol>
 <symbol id="text-bold" viewBox="0 0 20 20">
  <path d="m13 9.8c1-0.7 1.7-1.8 1.7-2.8 0-2.3-1.8-4-4-4h-6.3v14h7.1c2.1 0 3.7-1.7 3.7-3.8 0-1.5-0.9-2.8-2.2-3.4zm-5.6-4.3h3c1.2 0 1.9 1.3 1.3 2.3-0.2 0.4-0.7 0.7-1.3 0.7h-3v-3zm3.5 9h-3.5v-3h3.5c1.2 0 1.9 1.3 1.3 2.3-0.2 0.4-0.7 0.7-1.3 0.7z"/>
 </symbol>
 <symbol id="text-italic" viewBox="0 0 20 20">
  <path d="m8 3v3h2.2l-3.4 8h-2.8v3h8v-3h-2.2l3.4-8h2.8v-3z"/>
 </symbol>
 <symbol id="text-strikethrough" viewBox="0 0 20 20">
  <path d="m8 18h4v-3h-4v3zm-5-15v3h5v3h4v-3h5v-3h-14zm-2 10h18v-2h-18v2z"/>
 </symbol>
 <symbol id="text-underline" viewBox="0 0 20 20">
  <path d="m10 15c3.3 0 6-2.7 6-6v-8h-2.5v8c0 2.7-2.9 4.4-5.2 3-1.1-0.6-1.8-1.7-1.8-3v-8h-2.5v8c0 3.3 2.7 6 6 6zm-7 2v2h14v-2h-14z"/>
 </symbol>
 <symbol id="tune" viewBox="0 0 20 20">
  <path d="m1 15v2h6v-2h-6zm0-12v2h10v-2h-10zm10 16v-2h8v-2h-8v-2h-2v6h2zm-6-12v2h-4v2h4v2h2v-6h-2zm14 4v-2h-10v2h10zm-6-4h2v-2h4v-2h-4v-2h-2v6z"/>
 </symbol>
</svg>
